<?xml version="1.0" encoding="UTF-8"?><svg id="_レイヤー_2" xmlns="http://www.w3.org/2000/svg" viewBox="0 0 1600 91.6"><defs><style>.cls-1{stroke-width:2px;}.cls-1,.cls-2{fill:none;stroke:#bba579;stroke-miterlimit:10;}.cls-3{fill:#bba579;}.cls-2{stroke-width:5px;}</style></defs><g id="_レイヤー"><line class="cls-1" y1="87.79" x2="1600" y2="87.79"/><path class="cls-3" d="M187.79,59.36l.05,1.71c0,3.91.38,6.23,1.12,6.95.75.72,3.19,1.08,7.33,1.08,6.1,0,11.38-.72,15.87-2.17,4.48-1.45,7.34-3.36,8.58-5.74.46-.88.91-1.32,1.37-1.32.52,0,.76.32.73.97-.13,2.14-1.19,4.49-3.18,7.05-2.8,3.54-7.35,5.3-13.64,5.3-1.04,0-2.25-.05-3.62-.15l-5.28-.39c-3.1-.23-6.37-.34-9.82-.34-4.01,0-7.36.2-10.07.59-1.14.16-2.05.26-2.74.29-.82.03-1.22-.25-1.22-.86,0-.51.44-.89,1.33-1.14,2.26-.68,3.78-1.69,4.55-3.01.77-1.32,1.16-3.55,1.16-6.68l.05-2.25V15.54c0-4.34-1.76-6.86-5.27-7.58l-2.2-.44c-.78-.16-1.17-.48-1.17-.95,0-.73.55-1.1,1.66-1.1.75,0,1.77.07,3.07.2,2.21.2,4.69.29,7.46.29,2.99,0,5.7-.08,8.14-.24,1.23-.06,1.93-.1,2.1-.1.78,0,1.17.24,1.17.72,0,.7-.47,1.16-1.42,1.38l-1.71.39c-2.93.72-4.39,3.64-4.39,8.75v42.5Z"/><path class="cls-3" d="M268.68,51.03v-6.02c0-3.72-.7-6.29-2.1-7.72-1.89-1.94-4.43-2.91-7.62-2.91-4.3,0-6.45,1.81-6.45,5.42,0,1.07.21,2.29.63,3.68.2.58.31,1.1.34,1.55.03.58-.29.87-.97.87-1.52,0-2.9-.33-4.15-.98-1.25-.65-1.87-1.37-1.87-2.15,0-2.01,1.09-4.18,3.27-6.51,2.93-3.14,6.82-4.72,11.67-4.72,4.43,0,7.86.98,10.3,2.95s3.66,4.74,3.66,8.31v19.12c0,3.02.37,5.18,1.1,6.46.73,1.28,1.96,1.93,3.69,1.93.49,0,.88-.03,1.17-.08.59-.14.98-.21,1.17-.21.55-.03.81.2.78.68-.03.59-.8,1.18-2.3,1.78-1.5.6-2.97.9-4.41.9-2.68,0-5.09-1.66-7.25-4.98-4.71,3.58-9.08,5.37-13.11,5.37-3.05,0-5.48-.82-7.29-2.47s-2.71-3.85-2.71-6.62c0-3.74,1.71-6.65,5.12-8.72,3.41-2.07,9.18-3.72,17.3-4.96ZM268.68,52.98c-5.05.45-8.95,1.59-11.7,3.42-2.75,1.83-4.12,4.17-4.12,7.02,0,2.23.66,4.01,1.97,5.32,1.31,1.31,3.08,1.97,5.31,1.97,2.72,0,5-.89,6.84-2.67,1.13-1.13,1.7-2.93,1.7-5.39v-9.67Z"/><path class="cls-3" d="M321.45,39.31c4.36-5.18,8.89-7.76,13.57-7.76,5.21,0,9.33,2.13,12.35,6.4,2.08,2.93,3.12,7.4,3.12,13.4v11.68l-.05,1.47.15,2.35c.36,2.15,1.73,3.41,4.1,3.77l2.05.29c.88.13,1.33.45,1.37.95.03.7-.5,1.05-1.61,1.05-.36,0-.99-.06-1.9-.17-1.07-.15-3.05-.22-5.94-.22l-4.82.15h-1.85l-1.41.1-.68-.15c-.23-.13-.34-.38-.34-.75,0-.5.29-.82.88-.95l1.46-.39c1.3-.33,1.95-1.5,1.95-3.51v-16.82c0-4.52-1.04-8-3.13-10.46-2.09-2.45-5.06-3.68-8.91-3.68-2.71,0-5.11.8-7.22,2.39-2.1,1.6-3.16,3.42-3.16,5.47v18.64l.05,1.47.05,2.45c.16,2.74,2.42,4.24,6.79,4.5,1.07.1,1.61.45,1.61,1.05s-.37.9-1.12.9c-.55,0-1.38-.09-2.49-.28-.62-.07-2.15-.11-4.59-.11-5.18,0-8.27.07-9.28.22-1.01.11-1.66.17-1.95.17-.62,0-.91-.27-.88-.8.03-.4.34-.72.93-.95,1.66-.58,2.78-1.3,3.34-2.15.57-.85.85-2.21.85-4.1v-22.04c0-2.31-.28-3.88-.83-4.71s-1.59-1.24-3.12-1.24l-2.1.05c-.29,0-.55-.07-.78-.2-.29-.13-.44-.37-.44-.7,0-.47.42-.79,1.27-.95,2.18-.39,4.28-1.06,6.3-2l2.59-1.27c1.01-.49,1.64-.8,1.9-.93.46-.26.85-.39,1.17-.39.59,0,.85.47.78,1.42-.03.52-.05,1.14-.05,1.86v5.52Z"/><path class="cls-3" d="M415.57,66.55c-3.32,2.85-6,4.76-8.07,5.75-2.06.99-4.4,1.48-7,1.48-4.91,0-9.03-1.92-12.36-5.75s-5-8.58-5-14.24c0-6.24,1.99-11.51,5.97-15.8,3.98-4.29,8.86-6.44,14.65-6.44,3.93,0,7.87,1.16,11.8,3.47V15.76c0-6.17-1.66-9.16-4.98-8.97l-1.71.1c-.23,0-.44-.03-.63-.1-.33-.13-.5-.38-.54-.75-.07-.67.41-1.07,1.42-1.2,3.36-.42,7.19-1.92,11.46-4.49.36-.23.67-.34.93-.34.49,0,.73.36.73,1.07l.05.88v62.06c0,3.68,1.12,5.52,3.37,5.52l2.88-.1.44.05c.36.13.54.38.54.76,0,.7-.59,1.11-1.76,1.24-1.34.13-2.19.23-2.55.29l-2.74.44c-2.16.33-3.59.67-4.31,1.03-.62.36-1.11.54-1.47.54-.75.03-1.13-.78-1.13-2.43v-4.8ZM415.57,60.64v-16.08c0-2.92-.71-5.07-2.14-6.43-3.21-3.09-7.02-4.63-11.43-4.63-3.92,0-7.1,1.5-9.51,4.49-2.42,2.99-3.62,6.92-3.62,11.8,0,5.33,1.58,9.96,4.74,13.87,3.16,3.92,6.9,5.88,11.21,5.88,3.18,0,5.76-.82,7.76-2.47,1.99-1.64,2.99-3.78,2.99-6.42Z"/><path class="cls-3" d="M468.82,31.54c2.57,0,4.79.34,6.64,1.01l2.15.72c.88.32,1.32.82,1.32,1.49v.78c0,.46.03.91.1,1.37l.2,1.9c.1.68.15,1.3.15,1.86,0,1.27-.37,1.92-1.1,1.95-.4.03-.77-.39-1.1-1.27-1.79-4.95-5.14-7.42-10.06-7.42-1.95,0-3.56.56-4.81,1.67-1.25,1.11-1.88,2.51-1.88,4.21,0,1.8.68,3.25,2.03,4.36s4.08,2.47,8.18,4.07c4.07,1.59,6.89,3.27,8.47,5.04,1.58,1.77,2.37,4.15,2.37,7.14,0,3.67-1.36,6.81-4.08,9.43-2.72,2.62-5.96,3.92-9.74,3.92-2.7,0-5.63-.77-8.79-2.29-.75-.36-1.22-.54-1.42-.54l-1.27-.15c-.75-.06-1.16-.47-1.22-1.22l-.05-2.09-.15-6.23.1-1.46c.13-.88.5-1.33,1.1-1.36.6-.03,1,.46,1.2,1.46.68,3.58,2.01,6.38,3.98,8.4,1.97,2.02,4.34,3.03,7.1,3.03,2.38,0,4.32-.7,5.83-2.11,1.51-1.4,2.27-3.2,2.27-5.39,0-3.33-1.84-5.81-5.52-7.44l-4.3-1.91c-3.91-1.69-6.67-3.43-8.3-5.24-1.63-1.8-2.44-4-2.44-6.6,0-3.12,1.25-5.75,3.76-7.89s5.6-3.22,9.28-3.22Z"/><path class="cls-3" d="M530.37,31.54c2.8,0,5.3.35,7.5,1.06s3.3,1.51,3.3,2.41l-.05,1.46.34,3.71c0,1.73-.4,2.62-1.19,2.69-.37.03-.83-.45-1.39-1.45-1.04-1.87-2.79-3.48-5.24-4.85s-4.83-2.05-7.14-2.05c-3.18,0-5.78,1.46-7.8,4.36-2.01,2.91-3.02,6.66-3.02,11.24,0,5.43,1.55,10.02,4.66,13.78,3.1,3.75,6.9,5.63,11.38,5.63,3.61,0,7.15-1.48,10.62-4.44.43-.36.83-.55,1.2-.59.5-.06.75.16.75.68,0,.71-.78,1.77-2.34,3.16-4.04,3.63-8.89,5.44-14.55,5.44-5.21,0-9.56-1.89-13.06-5.68s-5.25-8.48-5.25-14.07c0-6.24,2.08-11.55,6.23-15.92,4.15-4.37,9.17-6.56,15.06-6.56Z"/><path class="cls-3" d="M591.88,51.03v-6.02c0-3.72-.7-6.29-2.1-7.72-1.89-1.94-4.43-2.91-7.62-2.91-4.3,0-6.45,1.81-6.45,5.42,0,1.07.21,2.29.63,3.68.2.58.31,1.1.34,1.55.03.58-.29.87-.97.87-1.52,0-2.9-.33-4.15-.98-1.25-.65-1.87-1.37-1.87-2.15,0-2.01,1.09-4.18,3.27-6.51,2.93-3.14,6.82-4.72,11.67-4.72,4.43,0,7.86.98,10.3,2.95s3.66,4.74,3.66,8.31v19.12c0,3.02.37,5.18,1.1,6.46.73,1.28,1.96,1.93,3.69,1.93.49,0,.88-.03,1.17-.08.59-.14.98-.21,1.17-.21.55-.03.81.2.78.68-.03.59-.8,1.18-2.3,1.78-1.5.6-2.97.9-4.41.9-2.68,0-5.09-1.66-7.25-4.98-4.71,3.58-9.08,5.37-13.11,5.37-3.05,0-5.48-.82-7.29-2.47s-2.71-3.85-2.71-6.62c0-3.74,1.71-6.65,5.12-8.72,3.41-2.07,9.18-3.72,17.3-4.96ZM591.88,52.98c-5.05.45-8.95,1.59-11.7,3.42-2.75,1.83-4.12,4.17-4.12,7.02,0,2.23.66,4.01,1.97,5.32,1.31,1.31,3.08,1.97,5.31,1.97,2.72,0,5-.89,6.84-2.67,1.13-1.13,1.7-2.93,1.7-5.39v-9.67Z"/><path class="cls-3" d="M643.71,38.77c4.82-4.82,9.6-7.23,14.36-7.23s8.96,1.84,12.23,5.51c3.27,3.67,4.91,8.26,4.91,13.75,0,6.34-1.99,11.75-5.96,16.24-3.97,4.49-8.77,6.73-14.4,6.73-3.16,0-6.87-.96-11.13-2.88v9.81c0,3.58.5,5.96,1.51,7.15,1.01,1.19,3.01,1.78,6.01,1.78,1.01,0,1.51.35,1.51,1.05,0,.57-.46.85-1.37.85l-2.49-.05-4.64-.1h-5.13l-2.05.04-1.9.12-2.29.04-.63-.1c-.29-.13-.44-.4-.44-.8,0-.53.42-.88,1.27-1.05,1.5-.29,2.53-.98,3.1-2.07.57-1.09.85-2.88.85-5.39l-.05-1.85v-36.46l-.1-2.05c0-1.85-.37-3.13-1.1-3.85s-2.08-1.07-4.03-1.07h-.83c-.29,0-.52-.03-.68-.1-.23-.13-.34-.35-.34-.65,0-.53.41-.9,1.22-1.1,5.44-1.43,9.16-2.99,11.18-4.69.39-.33.68-.49.88-.49.52,0,.78.46.78,1.37l-.05.93-.2,6.59ZM643.71,43.95v16.65c0,3.18,1.14,5.72,3.41,7.63s5.3,2.87,9.07,2.87c4.16,0,7.43-1.4,9.82-4.19,2.39-2.79,3.58-6.62,3.58-11.46,0-5.75-1.4-10.44-4.19-14.07-2.79-3.62-6.4-5.44-10.82-5.44-2.96,0-5.51.79-7.65,2.37-2.14,1.58-3.22,3.46-3.22,5.64Z"/><path class="cls-3" d="M709.17,48.24l-.05,1.07c0,5.57,1.54,10.25,4.62,14.04,3.08,3.79,6.87,5.69,11.37,5.69,3.55,0,7.42-1.59,11.59-4.79.26-.2.5-.31.73-.34.46-.03.68.23.68.78,0,.97-1.14,2.35-3.42,4.13-4.23,3.3-8.71,4.96-13.43,4.96-5.31,0-9.76-2.02-13.35-6.05-3.6-4.03-5.4-9.02-5.4-14.97s1.86-10.61,5.57-14.85,8.06-6.37,13.04-6.37c5.44,0,9.78,2.26,13.04,6.79.78,1.11,1.58,2.6,2.39,4.49.81,1.89,1.22,3.21,1.22,3.96,0,1.07-1.06,1.61-3.18,1.61l-3.62-.05-3.33-.1h-18.49ZM709.46,45.56h16.55c2.57,0,3.86-.52,3.86-1.56,0-2.54-1.1-4.9-3.3-7.08-2.2-2.18-4.58-3.27-7.15-3.27s-4.89,1.07-6.67,3.2c-1.77,2.13-2.87,5.04-3.3,8.72Z"/><line class="cls-2" x1="161.19" y1="87.93" x2="747.12" y2="87.93"/></g></svg>