<svg xmlns="http://www.w3.org/2000/svg" width="1600" height="64.748" viewBox="0 0 1600 64.748">
  <g id="_レイヤー" transform="translate(0 0.01)">
    <path id="パス_2556" data-name="パス 2556" d="M403.7,4.769l1.059,7.985.091.817-.091.333a.609.609,0,0,1-.484.333c-.272,0-.665-.454-1.21-1.391-4.144-7.259-9.77-10.859-16.878-10.859q-8.484,0-13.369,5.2-4.9,5.218-4.9,14.246,0,10.39,5.444,16.969A17.338,17.338,0,0,0,387.334,45a19.915,19.915,0,0,0,9.8-2.662,15.388,15.388,0,0,0,6.685-6.473c.575-1.18,1.028-1.785,1.331-1.815.363,0,.544.181.544.635v.363l-.182.726-.756,4.083-.121.6c-.091.575-.6,1.18-1.573,1.785a30.784,30.784,0,0,1-16.908,4.87q-10.707,0-17.241-6.352t-6.533-16.7a23.533,23.533,0,0,1,6.775-17.21,22.935,22.935,0,0,1,17-6.866,26.982,26.982,0,0,1,12.885,3.146l1.331.7.544.242.575.212A2.05,2.05,0,0,0,402,4.013a2.309,2.309,0,0,1,1-.544c.363,0,.575.423.7,1.27Z" transform="translate(573.711 0)" fill="#d1be92"/>
    <path id="パス_2557" data-name="パス 2557" d="M395.331,6.08a14.042,14.042,0,0,1,10.254,4.2,13.508,13.508,0,0,1,4.3,10.012,14,14,0,0,1-4.235,10.435,14.645,14.645,0,0,1-10.677,4.114,14.019,14.019,0,0,1-10.375-3.993A13.717,13.717,0,0,1,380.51,20.6a13.7,13.7,0,0,1,4.325-10.284A14.331,14.331,0,0,1,395.3,6.08Zm-.847,1.3a8.25,8.25,0,0,0-6.685,3.085,12.265,12.265,0,0,0-2.541,8.046,17.281,17.281,0,0,0,3.176,10.617,9.512,9.512,0,0,0,7.864,4.265,7.721,7.721,0,0,0,6.473-3.025,13.009,13.009,0,0,0,2.359-8.2c0-4.356-1-7.925-2.994-10.677a9.116,9.116,0,0,0-7.683-4.114Z" transform="translate(610.419 12.33)" fill="#d1be92"/>
    <path id="パス_2558" data-name="パス 2558" d="M403.366,11.042a11.1,11.1,0,0,1,8.772-4.477,9.09,9.09,0,0,1,4.779,1.119,10.932,10.932,0,0,1,3.478,3.841c2.541-3.327,5.565-4.991,9.1-4.991a8.858,8.858,0,0,1,7.017,2.873c1.664,1.906,2.51,4.6,2.51,8.015V28.132a5.945,5.945,0,0,0,1,3.781,4.623,4.623,0,0,0,3.3,1.452c.544.06.787.272.787.726,0,.393-.272.575-.787.575a8.327,8.327,0,0,1-1.028-.091,22.664,22.664,0,0,0-3.327-.151c-2.934,0-4.779.06-5.5.151-.484.06-.817.121-1,.121-.575,0-.877-.212-.877-.635,0-.242.151-.454.575-.6a5.13,5.13,0,0,0,1.906-1.089,2.673,2.673,0,0,0,.454-1.724V29.523l.03-10.859a11.288,11.288,0,0,0-1.906-6.987,6.317,6.317,0,0,0-5.323-2.48,7.411,7.411,0,0,0-4.3,1.391c-1.361.938-2.057,1.906-2.057,2.964a5.073,5.073,0,0,0,.091.847,15.468,15.468,0,0,1,.212,2.3V28.707a5.512,5.512,0,0,0,.847,3.539,4.734,4.734,0,0,0,3.206,1.21q1.089.091,1.089.726c0,.393-.333.6-.968.6a8.045,8.045,0,0,1-1.059-.061c-1.21-.121-2.269-.212-3.146-.212-3.055,0-4.961.06-5.777.151a7.478,7.478,0,0,1-1.028.091c-.544,0-.786-.181-.786-.575,0-.242.212-.454.6-.575a4.006,4.006,0,0,0,2.087-1.24,9.213,9.213,0,0,0,.333-3.236V16.82a7.95,7.95,0,0,0-1.815-5.5,6.406,6.406,0,0,0-4.991-2,7.179,7.179,0,0,0-4.719,1.512,4.877,4.877,0,0,0-1.815,3.932V29.039a4.4,4.4,0,0,0,.938,3.146,5.18,5.18,0,0,0,3.206,1.27c.7.06,1.028.333,1.028.756,0,.393-.272.6-.786.575-.3,0-.847-.091-1.6-.151a26.3,26.3,0,0,0-2.753-.091h-4.507c-.3.03-.7.06-1.18.121-.575.06-1,.121-1.24.151-.544,0-.847-.181-.847-.575,0-.333.242-.6.726-.756a3.193,3.193,0,0,0,1.966-1.21,6.138,6.138,0,0,0,.423-2.843V14.551a7.449,7.449,0,0,0-.514-3.3,1.977,1.977,0,0,0-1.906-.907h-1.452a.931.931,0,0,1-.575-.181.372.372,0,0,1-.212-.333c0-.3.272-.514.786-.7a26.352,26.352,0,0,0,6.382-2.571,5.918,5.918,0,0,1,1.573-.726c.333,0,.514.423.514,1.24V11.1Z" transform="translate(637.833 11.844)" fill="#d1be92"/>
    <path id="パス_2559" data-name="パス 2559" d="M423.3,11.042a11.1,11.1,0,0,1,8.772-4.477,9.089,9.089,0,0,1,4.779,1.119,10.932,10.932,0,0,1,3.478,3.841c2.541-3.327,5.565-4.991,9.1-4.991a8.858,8.858,0,0,1,7.017,2.873c1.664,1.906,2.51,4.6,2.51,8.015V28.132a5.946,5.946,0,0,0,1,3.781,4.623,4.623,0,0,0,3.3,1.452c.544.06.786.272.786.726,0,.393-.272.575-.786.575a8.33,8.33,0,0,1-1.028-.091,22.662,22.662,0,0,0-3.327-.151c-2.934,0-4.779.06-5.505.151-.484.06-.817.121-1,.121-.575,0-.877-.212-.877-.635,0-.242.151-.454.575-.6A5.129,5.129,0,0,0,454,32.367a2.672,2.672,0,0,0,.454-1.724V29.523l.03-10.859a11.288,11.288,0,0,0-1.906-6.987,6.317,6.317,0,0,0-5.323-2.48,7.411,7.411,0,0,0-4.3,1.391c-1.361.938-2.057,1.906-2.057,2.964a5.063,5.063,0,0,0,.091.847,15.463,15.463,0,0,1,.212,2.3V28.707a5.513,5.513,0,0,0,.847,3.539,4.734,4.734,0,0,0,3.206,1.21q1.089.091,1.089.726c0,.393-.333.6-.968.6a8.047,8.047,0,0,1-1.059-.061c-1.21-.121-2.268-.212-3.146-.212-3.055,0-4.961.06-5.777.151a7.476,7.476,0,0,1-1.028.091c-.544,0-.786-.181-.786-.575,0-.242.212-.454.6-.575a4.007,4.007,0,0,0,2.087-1.24,9.217,9.217,0,0,0,.333-3.236V16.82a7.95,7.95,0,0,0-1.815-5.5,6.405,6.405,0,0,0-4.991-2,7.179,7.179,0,0,0-4.719,1.512,4.877,4.877,0,0,0-1.815,3.932V29.039a4.4,4.4,0,0,0,.938,3.146,5.18,5.18,0,0,0,3.206,1.27c.7.06,1.028.333,1.028.756,0,.393-.272.6-.786.575-.3,0-.847-.091-1.6-.151a26.3,26.3,0,0,0-2.753-.091h-4.507c-.3.03-.7.06-1.18.121-.575.06-1,.121-1.24.151-.544,0-.847-.181-.847-.575,0-.333.242-.6.726-.756a3.192,3.192,0,0,0,1.966-1.21,6.137,6.137,0,0,0,.423-2.843V14.551a7.45,7.45,0,0,0-.514-3.3,1.977,1.977,0,0,0-1.906-.907h-1.452a.931.931,0,0,1-.575-.181.372.372,0,0,1-.212-.333c0-.3.272-.514.787-.7a26.352,26.352,0,0,0,6.382-2.571,5.918,5.918,0,0,1,1.573-.726c.333,0,.514.423.514,1.24V11.1Z" transform="translate(678.185 11.844)" fill="#d1be92"/>
    <path id="パス_2560" data-name="パス 2560" d="M448.761,6.08a14.042,14.042,0,0,1,10.254,4.2,13.508,13.508,0,0,1,4.3,10.012,13.972,13.972,0,0,1-4.2,10.435,14.645,14.645,0,0,1-10.677,4.114,14.019,14.019,0,0,1-10.375-3.993A13.717,13.717,0,0,1,433.97,20.6,13.7,13.7,0,0,1,438.3,10.315,14.331,14.331,0,0,1,448.761,6.08Zm-.847,1.3a8.25,8.25,0,0,0-6.685,3.085,12.265,12.265,0,0,0-2.541,8.046,17.281,17.281,0,0,0,3.176,10.617,9.512,9.512,0,0,0,7.864,4.265,7.721,7.721,0,0,0,6.473-3.025,13.01,13.01,0,0,0,2.359-8.2c0-4.356-1-7.925-2.994-10.677a9.116,9.116,0,0,0-7.683-4.114Z" transform="translate(718.659 12.33)" fill="#d1be92"/>
    <path id="パス_2561" data-name="パス 2561" d="M456.968,11.809c2.964-3.509,6.049-5.293,9.225-5.293a9.78,9.78,0,0,1,8.409,4.356c1.422,2,2.117,5.021,2.117,9.1v8.953l.06,1.6a2.977,2.977,0,0,0,2.783,2.571l1.391.212c.6.091.907.3.938.635,0,.484-.333.726-1.089.726a10,10,0,0,1-1.3-.121,37.986,37.986,0,0,0-4.053-.151l-3.267.091h-1.27l-.968.06-.454-.091a.569.569,0,0,1-.242-.514c0-.333.212-.544.6-.635l1-.272c.877-.212,1.331-1.028,1.331-2.39V19.189c0-3.085-.726-5.444-2.148-7.108a7.546,7.546,0,0,0-6.049-2.51,7.839,7.839,0,0,0-4.9,1.633,4.684,4.684,0,0,0-2.148,3.72V28.6L457,30.259c.121,1.875,1.663,2.873,4.628,3.055q1.089.091,1.089.726c0,.423-.242.6-.756.6a11.964,11.964,0,0,1-1.694-.181c-.423-.06-1.452-.06-3.115-.06-3.509,0-5.626.06-6.322.151-.7.06-1.119.121-1.331.121-.424,0-.635-.181-.6-.544,0-.272.242-.484.635-.635a4.459,4.459,0,0,0,2.269-1.452,5.093,5.093,0,0,0,.575-2.783v-15a6.118,6.118,0,0,0-.575-3.206,2.332,2.332,0,0,0-2.117-.847h-1.422a.84.84,0,0,1-.544-.091.467.467,0,0,1-.3-.484c0-.3.3-.544.877-.635a18.192,18.192,0,0,0,4.3-1.361l1.754-.877c.7-.333,1.119-.544,1.3-.635a1.628,1.628,0,0,1,.787-.272c.393,0,.575.333.544.968,0,.363-.03.786-.03,1.27v3.751Z" transform="translate(745.871 11.865)" fill="#d1be92"/>
    <path id="パス_2562" data-name="パス 2562" d="M485.215,0a15.452,15.452,0,0,1,6.019,1.028l2.3.968a1.442,1.442,0,0,0,.6.121,1.212,1.212,0,0,0,.787-.333l.454-.393a.767.767,0,0,1,.363-.121c.544,0,.817.514.817,1.633,0,.363.151,1.482.424,3.357l.544,3.418a9.447,9.447,0,0,1,.151,1.361c0,.7-.242,1.028-.7,1.028-.363,0-.726-.544-1.089-1.6a11.164,11.164,0,0,0-4.84-5.928,15.029,15.029,0,0,0-8.167-2.329A8.686,8.686,0,0,0,476.9,4.325a6.744,6.744,0,0,0-2.39,5.263,7.619,7.619,0,0,0,1.573,4.84,9.188,9.188,0,0,0,2.964,2.541,75.913,75.913,0,0,0,7.925,2.9q12.3,4.038,12.28,13.188a12.923,12.923,0,0,1-4.507,10.163,16.984,16.984,0,0,1-11.585,3.962,24.538,24.538,0,0,1-5.626-.726,14.5,14.5,0,0,1-4.507-1.694,2.043,2.043,0,0,1-.786-.847,18.613,18.613,0,0,1-.6-2.3c-.03-.181-.333-1.18-.817-3.025a18.263,18.263,0,0,1-.877-4.265c0-.665.212-1,.665-.968.393,0,.756.575,1.089,1.633a12.864,12.864,0,0,0,5.051,6.927,13.882,13.882,0,0,0,8.348,2.813,11.715,11.715,0,0,0,7.743-2.692,8.3,8.3,0,0,0,3.176-6.564,7.749,7.749,0,0,0-2.934-6.231c-1-.877-3.872-2.087-8.62-3.69-4.9-1.664-8.378-3.509-10.435-5.5a10.482,10.482,0,0,1-3.055-7.834,10.968,10.968,0,0,1,3.993-8.772A15.356,15.356,0,0,1,485.275.06Z" transform="translate(791.487 0.02)" fill="#d1be92"/>
    <path id="パス_2563" data-name="パス 2563" d="M492.707,11.77c3.267-3.267,6.533-4.93,9.77-4.93a10.743,10.743,0,0,1,8.318,3.751,13.652,13.652,0,0,1,3.327,9.346,16.1,16.1,0,0,1-4.053,11.04,12.58,12.58,0,0,1-9.8,4.567,19.052,19.052,0,0,1-7.562-1.966v6.685c0,2.45.333,4.053,1.028,4.87s2.057,1.21,4.083,1.21c.7,0,1.028.242,1.028.726,0,.393-.3.575-.938.575h-1.694l-3.146-.091h-4.9l-1.3.121H485.3l-.423-.03a.523.523,0,0,1-.3-.544c0-.363.3-.6.877-.726a2.83,2.83,0,0,0,2.117-1.422,8.412,8.412,0,0,0,.575-3.66V40.02l-.03-24.8-.06-1.391a3.554,3.554,0,0,0-.756-2.631,3.953,3.953,0,0,0-2.752-.726h-.575a.9.9,0,0,1-.454-.06.5.5,0,0,1-.242-.454c0-.363.272-.6.817-.756q5.535-1.452,7.622-3.176c.272-.212.454-.333.6-.333.363,0,.544.3.544.938v.635l-.181,4.477Zm0,3.539V26.651a6.5,6.5,0,0,0,2.329,5.2,9.262,9.262,0,0,0,6.17,1.966,8.305,8.305,0,0,0,6.684-2.843,11.6,11.6,0,0,0,2.45-7.8,15.309,15.309,0,0,0-2.843-9.588,8.841,8.841,0,0,0-7.35-3.69,8.578,8.578,0,0,0-5.2,1.6,4.678,4.678,0,0,0-2.178,3.841Z" transform="translate(818.476 11.541)" fill="#d1be92"/>
    <path id="パス_2564" data-name="パス 2564" d="M512.7,19.328V15.245c0-2.541-.484-4.3-1.422-5.263a6.858,6.858,0,0,0-5.172-2c-2.934,0-4.386,1.24-4.386,3.69a9.251,9.251,0,0,0,.423,2.51,5.737,5.737,0,0,1,.242,1.059c0,.393-.181.6-.665.6a5.852,5.852,0,0,1-2.813-.665q-1.27-.681-1.27-1.452c0-1.361.756-2.843,2.238-4.446a10.348,10.348,0,0,1,7.955-3.206c3.025,0,5.354.665,7.017,2a6.843,6.843,0,0,1,2.48,5.656V26.739a9.091,9.091,0,0,0,.756,4.386,2.711,2.711,0,0,0,2.51,1.3,2.843,2.843,0,0,0,.786-.06,5.276,5.276,0,0,1,.786-.151c.363,0,.544.121.544.454,0,.393-.544.817-1.573,1.21a7.785,7.785,0,0,1-2.995.6c-1.815,0-3.478-1.119-4.93-3.388-3.206,2.45-6.17,3.66-8.923,3.66a7.226,7.226,0,0,1-4.961-1.664,5.775,5.775,0,0,1-1.845-4.507,6.563,6.563,0,0,1,3.478-5.928c2.329-1.422,6.231-2.541,11.766-3.388Zm0,1.331a17.109,17.109,0,0,0-7.955,2.329,5.565,5.565,0,0,0-2.813,4.779,5.01,5.01,0,0,0,1.331,3.63,4.8,4.8,0,0,0,3.63,1.331,6.485,6.485,0,0,0,4.658-1.815,5.053,5.053,0,0,0,1.149-3.66V20.659Z" transform="translate(847.267 12.33)" fill="#d1be92"/>
    <path id="パス_2565" data-name="パス 2565" d="M523.608,6.12a16.692,16.692,0,0,1,5.112.726c1.512.484,2.238,1.028,2.238,1.633v1l.212,2.51q0,1.769-.817,1.815c-.242,0-.575-.3-.938-1a8.853,8.853,0,0,0-3.569-3.3,9.893,9.893,0,0,0-4.87-1.391,6.194,6.194,0,0,0-5.293,2.964,13.216,13.216,0,0,0-2.057,7.652A14.249,14.249,0,0,0,516.8,28.11a9.661,9.661,0,0,0,7.743,3.841,11.06,11.06,0,0,0,7.229-3.025,1.671,1.671,0,0,1,.817-.393c.333-.03.514.121.514.454,0,.484-.544,1.21-1.6,2.148a14.241,14.241,0,0,1-9.891,3.69,11.663,11.663,0,0,1-8.893-3.872,13.552,13.552,0,0,1-3.569-9.588,15.2,15.2,0,0,1,4.235-10.828A13.636,13.636,0,0,1,523.638,6.06Z" transform="translate(870.875 12.29)" fill="#d1be92"/>
    <path id="パス_2566" data-name="パス 2566" d="M524.867,17.443v.726a14.375,14.375,0,0,0,3.116,9.558,9.65,9.65,0,0,0,7.743,3.872q3.63,0,7.894-3.267a1.323,1.323,0,0,1,.514-.242c.3,0,.454.151.454.514,0,.665-.786,1.6-2.329,2.813a14.687,14.687,0,0,1-9.135,3.388,11.612,11.612,0,0,1-9.074-4.114A14.746,14.746,0,0,1,520.39,20.5a14.544,14.544,0,0,1,3.781-10.1,11.375,11.375,0,0,1,8.862-4.325A10.381,10.381,0,0,1,541.9,10.7a18.388,18.388,0,0,1,1.633,3.055,8.328,8.328,0,0,1,.817,2.692c0,.726-.726,1.089-2.148,1.089h-2.45l-2.268-.091H524.9Zm.212-1.815H536.33c1.754,0,2.631-.363,2.631-1.059a6.739,6.739,0,0,0-2.238-4.809,6.814,6.814,0,0,0-4.87-2.238A5.754,5.754,0,0,0,527.317,9.7,10.869,10.869,0,0,0,525.078,15.628Z" transform="translate(893.632 12.31)" fill="#d1be92"/>
    <line id="線_14" data-name="線 14" x2="1600" y2="0.484" transform="translate(0 61.754)" fill="none" stroke="#d1be92" stroke-miterlimit="10" stroke-width="2"/>
    <line id="線_17" data-name="線 17" x2="521.72" transform="translate(932.421 62.238)" fill="none" stroke="#bba579" stroke-miterlimit="10" stroke-width="5"/>
  </g>
</svg>
