<svg xmlns="http://www.w3.org/2000/svg" width="750" height="73.913" viewBox="0 0 750 73.913">
  <g id="_レイヤー" transform="translate(-141 -17.667)">
    <line id="線_3" data-name="線 3" x2="750" transform="translate(141 87.79)" fill="none" stroke="#bba579" stroke-miterlimit="10" stroke-width="2"/>
    <path id="パス_14" data-name="パス 14" d="M184.691,48.969l.04,1.38c0,3.156.307,5.029.9,5.61s2.575.872,5.917.872a41.791,41.791,0,0,0,12.81-1.752q5.424-1.756,6.926-4.633c.371-.71.735-1.065,1.106-1.065.42,0,.613.258.589.783a10.674,10.674,0,0,1-2.567,5.691q-3.39,4.286-11.01,4.278c-.839,0-1.816-.04-2.922-.121l-4.262-.315q-3.753-.278-7.926-.274a58.373,58.373,0,0,0-8.128.476c-.92.129-1.655.21-2.212.234-.662.024-.985-.2-.985-.694,0-.412.355-.718,1.074-.92a6.029,6.029,0,0,0,3.673-2.43,11.363,11.363,0,0,0,.936-5.392l.04-1.816V13.6q0-5.255-4.254-6.118l-1.776-.355c-.63-.129-.944-.387-.944-.767,0-.589.444-.888,1.34-.888.605,0,1.429.057,2.478.161,1.784.161,3.786.234,6.022.234q3.62,0,6.57-.194c.993-.048,1.558-.081,1.7-.081q.944,0,.944.581c0,.565-.379.936-1.146,1.114l-1.38.315q-3.548.872-3.543,7.063v34.3Z" transform="translate(0 16.604)" fill="#bba579"/>
    <path id="パス_15" data-name="パス 15" d="M264.351,47.272V42.413q0-4.5-1.7-6.231a8.193,8.193,0,0,0-6.151-2.349q-5.206,0-5.206,4.375a10.411,10.411,0,0,0,.509,2.97,4.894,4.894,0,0,1,.274,1.251c.024.468-.234.7-.783.7a7.145,7.145,0,0,1-3.35-.791c-1.009-.525-1.509-1.106-1.509-1.735q0-2.434,2.639-5.255a12.279,12.279,0,0,1,9.42-3.81q5.364,0,8.314,2.381a8.133,8.133,0,0,1,2.954,6.708V56.062a11.2,11.2,0,0,0,.888,5.214,3.155,3.155,0,0,0,2.978,1.558,5.743,5.743,0,0,0,.944-.065,5.28,5.28,0,0,1,.944-.17c.444-.024.654.161.63.549-.024.476-.646.952-1.856,1.437a9.544,9.544,0,0,1-3.56.726q-3.245,0-5.852-4.02-5.7,4.335-10.582,4.335a8.4,8.4,0,0,1-5.884-1.994,6.867,6.867,0,0,1-2.187-5.343,7.837,7.837,0,0,1,4.133-7.039q4.129-2.506,13.964-4Zm0,1.574q-6.114.545-9.444,2.761a6.6,6.6,0,0,0-3.326,5.666,5.482,5.482,0,0,0,5.876,5.884A7.63,7.63,0,0,0,262.979,61a5.958,5.958,0,0,0,1.372-4.351V48.846Z" transform="translate(-14.367 11.577)" fill="#bba579"/>
    <path id="パス_16" data-name="パス 16" d="M318.754,37.621q5.279-6.272,10.953-6.264a11.574,11.574,0,0,1,9.969,5.166q2.518,3.548,2.518,10.816v9.428l-.04,1.187.121,1.9a3.519,3.519,0,0,0,3.309,3.043l1.655.234c.71.1,1.074.363,1.106.767.024.565-.4.848-1.3.848-.291,0-.8-.048-1.534-.137a41.5,41.5,0,0,0-4.795-.178l-3.891.121h-1.493l-1.138.081-.549-.121a.632.632,0,0,1-.274-.605c0-.4.234-.662.71-.767l1.178-.315q1.574-.4,1.574-2.833V46.411q0-5.473-2.526-8.443A8.937,8.937,0,0,0,327.117,35a9.422,9.422,0,0,0-5.828,1.929,5.535,5.535,0,0,0-2.551,4.415V56.388l.04,1.187.04,1.978q.194,3.317,5.481,3.632c.864.081,1.3.363,1.3.848s-.3.726-.9.726a13,13,0,0,1-2.01-.226c-.5-.057-1.735-.089-3.7-.089q-6.272,0-7.491.178c-.815.089-1.34.137-1.574.137-.5,0-.735-.218-.71-.646.024-.323.274-.581.751-.767a5.18,5.18,0,0,0,2.7-1.735,6.1,6.1,0,0,0,.686-3.309V40.511a7.488,7.488,0,0,0-.67-3.8,2.8,2.8,0,0,0-2.518-1l-1.7.04a1.259,1.259,0,0,1-.63-.161.576.576,0,0,1-.355-.565c0-.379.339-.638,1.025-.767a20.615,20.615,0,0,0,5.085-1.614l2.091-1.025c.815-.4,1.324-.646,1.534-.751a2.019,2.019,0,0,1,.944-.315c.476,0,.686.379.63,1.146-.024.42-.04.92-.04,1.5v4.456Z" transform="translate(-26.176 11.768)" fill="#bba579"/>
    <path id="パス_17" data-name="パス 17" d="M409.317,53.719a32.746,32.746,0,0,1-6.514,4.641,12.9,12.9,0,0,1-5.65,1.195,12.705,12.705,0,0,1-9.977-4.641A16.9,16.9,0,0,1,383.14,43.42a18.058,18.058,0,0,1,4.819-12.753,15.5,15.5,0,0,1,11.825-5.2,18.674,18.674,0,0,1,9.525,2.8V12.723q0-7.47-4.02-7.24l-1.38.081a1.462,1.462,0,0,1-.509-.081.669.669,0,0,1-.436-.605c-.057-.541.331-.864,1.146-.969a24.425,24.425,0,0,0,9.25-3.624,1.456,1.456,0,0,1,.751-.274c.4,0,.589.291.589.864l.04.71V51.677q0,4.456,2.72,4.456l2.325-.081.355.04a.6.6,0,0,1,.436.613c0,.565-.476.9-1.421,1-1.082.1-1.768.186-2.058.234l-2.212.355a13.773,13.773,0,0,0-3.479.831,2.615,2.615,0,0,1-1.187.436c-.605.024-.912-.63-.912-1.961V53.727Zm0-4.77V35.97c0-2.357-.573-4.092-1.727-5.19a12.847,12.847,0,0,0-9.226-3.737,9.393,9.393,0,0,0-7.676,3.624q-2.93,3.62-2.922,9.525a17.276,17.276,0,0,0,3.826,11.2q3.826,4.746,9.048,4.746a9.508,9.508,0,0,0,6.264-1.994,6.4,6.4,0,0,0,2.413-5.182Z" transform="translate(-40.767 17.657)" fill="#bba579"/>
    <path id="パス_18" data-name="パス 18" d="M466.109,31.536a15.794,15.794,0,0,1,5.36.815l1.735.581c.71.258,1.065.662,1.065,1.2v.63a7.28,7.28,0,0,0,.081,1.106l.161,1.534a10.4,10.4,0,0,1,.121,1.5c0,1.025-.3,1.55-.888,1.574-.323.024-.622-.315-.888-1.025q-2.167-5.993-8.12-5.989a5.641,5.641,0,0,0-3.883,1.348,4.581,4.581,0,0,0,.121,6.917,27.31,27.31,0,0,0,6.6,3.285q4.928,1.925,6.837,4.068a8.336,8.336,0,0,1,1.913,5.763,10.19,10.19,0,0,1-3.293,7.612,10.922,10.922,0,0,1-7.862,3.164,16.514,16.514,0,0,1-7.1-1.848,3.988,3.988,0,0,0-1.146-.436l-1.025-.121a.968.968,0,0,1-.985-.985l-.04-1.687-.121-5.029.081-1.178c.1-.71.4-1.074.888-1.1s.807.371.969,1.178a12.9,12.9,0,0,0,3.213,6.78,7.723,7.723,0,0,0,5.731,2.446,6.612,6.612,0,0,0,4.706-1.7,5.674,5.674,0,0,0,1.832-4.351q0-4.032-4.456-6.005l-3.471-1.542a19.468,19.468,0,0,1-6.7-4.23,7.646,7.646,0,0,1-1.97-5.327,8.053,8.053,0,0,1,3.035-6.369,11.148,11.148,0,0,1,7.491-2.6Z" transform="translate(-54.577 11.581)" fill="#bba579"/>
    <path id="パス_19" data-name="パス 19" d="M526.267,31.54a19.688,19.688,0,0,1,6.054.856c1.776.573,2.664,1.219,2.664,1.945l-.04,1.178.274,2.995c0,1.4-.323,2.115-.961,2.171-.3.024-.67-.363-1.122-1.17a10.5,10.5,0,0,0-4.23-3.915,11.78,11.78,0,0,0-5.763-1.655,7.4,7.4,0,0,0-6.3,3.519,15.636,15.636,0,0,0-2.438,9.073,16.868,16.868,0,0,0,3.761,11.123,11.512,11.512,0,0,0,9.186,4.544,13.17,13.17,0,0,0,8.572-3.584,1.864,1.864,0,0,1,.969-.476c.4-.048.605.129.605.549,0,.573-.63,1.429-1.889,2.551a16.962,16.962,0,0,1-11.744,4.391,13.755,13.755,0,0,1-10.542-4.585,16.109,16.109,0,0,1-4.238-11.357,17.984,17.984,0,0,1,5.029-12.85,16.154,16.154,0,0,1,12.156-5.3Z" transform="translate(-65.054 11.577)" fill="#bba579"/>
    <path id="パス_20" data-name="パス 20" d="M587.551,47.272V42.413q0-4.5-1.7-6.231a8.193,8.193,0,0,0-6.151-2.349q-5.206,0-5.206,4.375a10.412,10.412,0,0,0,.508,2.97,4.9,4.9,0,0,1,.274,1.251c.024.468-.234.7-.783.7a7.145,7.145,0,0,1-3.35-.791c-1.009-.525-1.509-1.106-1.509-1.735q0-2.434,2.639-5.255a12.279,12.279,0,0,1,9.42-3.81q5.364,0,8.314,2.381a8.133,8.133,0,0,1,2.954,6.708V56.062a11.2,11.2,0,0,0,.888,5.214,3.155,3.155,0,0,0,2.978,1.558,5.743,5.743,0,0,0,.944-.065,5.281,5.281,0,0,1,.944-.17c.444-.024.654.161.63.549-.024.476-.646.952-1.857,1.437a9.544,9.544,0,0,1-3.56.726q-3.245,0-5.852-4.02-5.7,4.335-10.582,4.335a8.4,8.4,0,0,1-5.884-1.994,6.867,6.867,0,0,1-2.187-5.343,7.837,7.837,0,0,1,4.133-7.039q4.129-2.506,13.964-4Zm0,1.574q-6.114.545-9.444,2.761a6.6,6.6,0,0,0-3.326,5.666,5.482,5.482,0,0,0,5.876,5.884A7.631,7.631,0,0,0,586.179,61a5.958,5.958,0,0,0,1.372-4.351V48.846Z" transform="translate(-76.689 11.577)" fill="#bba579"/>
    <path id="パス_21" data-name="パス 21" d="M641.047,37.052q5.836-5.836,11.591-5.836a12.829,12.829,0,0,1,9.872,4.448,16.081,16.081,0,0,1,3.963,11.1,19.105,19.105,0,0,1-4.811,13.108A14.967,14.967,0,0,1,650.039,65.3a22.478,22.478,0,0,1-8.984-2.325V70.9q0,4.335,1.219,5.771t4.851,1.437c.815,0,1.219.283,1.219.848,0,.46-.371.686-1.106.686l-2.01-.04-3.745-.081h-4.141l-1.655.032-1.534.1-1.848.032L631.8,79.6a.639.639,0,0,1-.355-.646c0-.428.339-.71,1.025-.848a3.33,3.33,0,0,0,2.5-1.671,10.009,10.009,0,0,0,.686-4.351l-.04-1.493V41.16l-.081-1.655a4.306,4.306,0,0,0-.888-3.108,4.65,4.65,0,0,0-3.253-.864h-.67a1.431,1.431,0,0,1-.549-.081.554.554,0,0,1-.274-.525c0-.428.331-.726.985-.888q6.587-1.731,9.024-3.786a1.344,1.344,0,0,1,.71-.4c.42,0,.63.371.63,1.106l-.04.751-.161,5.319Zm0,4.181V54.673a7.643,7.643,0,0,0,2.752,6.159,11.009,11.009,0,0,0,7.321,2.317,9.887,9.887,0,0,0,7.926-3.382c1.929-2.252,2.89-5.343,2.89-9.25q0-6.962-3.382-11.357a10.548,10.548,0,0,0-8.734-4.391,10.108,10.108,0,0,0-6.175,1.913,5.572,5.572,0,0,0-2.6,4.552Z" transform="translate(-88.349 11.901)" fill="#bba579"/>
    <path id="パス_22" data-name="パス 22" d="M707.886,45.02l-.04.864a17.386,17.386,0,0,0,3.729,11.333,11.41,11.41,0,0,0,9.178,4.593q4.3,0,9.355-3.866a1.245,1.245,0,0,1,.589-.274c.371-.024.549.186.549.63q0,1.174-2.76,3.334a17.362,17.362,0,0,1-10.84,4,13.857,13.857,0,0,1-10.776-4.883,17.475,17.475,0,0,1-4.359-12.083,17.225,17.225,0,0,1,4.5-11.987q4.492-5.134,10.526-5.142a12.334,12.334,0,0,1,10.526,5.481,20.306,20.306,0,0,1,1.929,3.624,10,10,0,0,1,.985,3.2c0,.864-.856,1.3-2.567,1.3l-2.922-.04-2.688-.081H707.87Zm.234-2.163h13.359c2.074,0,3.116-.42,3.116-1.259a7.951,7.951,0,0,0-2.664-5.715,8.087,8.087,0,0,0-5.771-2.639,6.849,6.849,0,0,0-5.384,2.583,13.176,13.176,0,0,0-2.664,7.039Z" transform="translate(-102.35 11.577)" fill="#bba579"/>
    <line id="線_4" data-name="線 4" x2="479.31" transform="translate(161.19 87.93)" fill="none" stroke="#bba579" stroke-miterlimit="10" stroke-width="5"/>
  </g>
</svg>
