<svg xmlns="http://www.w3.org/2000/svg" width="1595.79" height="88.08" viewBox="0 0 1595.79 88.08">
  <g id="car01" transform="translate(0 0)">
    <g id="_背景">
      <line id="線_2" data-name="線 2" x2="1595.79" transform="translate(0 87.08)" fill="none" stroke="#d4c194" stroke-miterlimit="10" stroke-width="2"/>
    </g>
    <g id="_レイヤー_2-2">
      <path id="パス_11" data-name="パス 11" d="M206.09,14.85c.18,2.79.72,5.04.72,5.58,0,.81-.36,1.35-.9,1.35-.99,0-1.44-.72-2.52-3.51-2.97-7.65-13.86-13.95-24.3-13.95-17.19,0-27,10.53-27,28.98,0,16.92,12.87,30.33,28.98,30.33,9.99,0,20.79-5.67,23.85-12.51.45-1.08.9-1.44,1.35-1.44s.63.27.63,1.08a51.32,51.32,0,0,1-1.62,7.92c-2.25,3.96-15.39,7.83-26.55,7.83-20.79,0-34.38-12.42-34.38-31.32S158.84,1.44,178.64,1.44a45.222,45.222,0,0,1,22.05,5.67,4.533,4.533,0,0,0,1.35.45,6.268,6.268,0,0,0,1.26-.27,4.476,4.476,0,0,1,1.44-.27c.54,0,.72.18.81.99Z" fill="#d4c194"/>
      <path id="パス_12" data-name="パス 12" d="M222.38,65.52c-.72,0-1.08-.27-1.08-.9,0-.72.36-.9,1.71-1.08,2.07-.27,4.5-2.7,6.21-6.3Q241.64,31.32,254.15,5.4c2.07-4.32,2.79-5.4,3.24-5.4.63,0,.9.99,2.79,5.76,1.17,2.88,14.4,34.11,21.15,50.4,1.8,4.32,3.6,5.85,8.37,6.93,1.8.45,2.34.72,2.34,1.44,0,.63-1.17,1.26-2.61,1.26s-4.77-.81-10.71-.81c-3.6,0-6.21.45-8.1.45-.9,0-1.62-.45-1.62-.99,0-.72.81-1.26,2.16-1.35,1.89-.27,2.97-1.17,2.97-2.7,0-1.62-3.6-13.23-6.48-18.54-.54-1.08-.72-1.35-2.52-1.35l-22.59.36c-1.26,0-1.53.09-1.8.81-4.5,9.81-7.38,15.48-7.38,16.92,0,2.52,1.35,3.51,6.21,4.86.72.18.99.45.99.99,0,.63-.54.99-1.8.99-2.16,0-5.04-.27-7.65-.27-4.05,0-8.19.36-8.73.36Zm41.94-33.03-6.75-15.48-1.8-3.15c-.27-.63-.63-.99-.81-.99-.45,0-.99.9-2.25,3.51l-8.46,18.18a3.011,3.011,0,0,0-.36,1.26c0,.72.72,1.08,1.71,1.08l17.91-.09c1.44,0,1.8-.27,1.8-1.35a1.142,1.142,0,0,0-.09-.54Z" fill="#d4c194"/>
      <path id="パス_13" data-name="パス 13" d="M339.11,33.3c1.08,1.89,1.98,3.33,2.52,4.23,1.44,2.43,2.61,4.23,3.33,5.4l5.49,7.74c7.29,10.44,10.26,13.32,13.5,13.32h.99c.63,0,.99.18.99.63,0,1.26-1.62,1.98-4.32,1.98-8.82,0-11.25-2.07-21.6-18.99-5.22-8.37-6.75-10.71-7.56-11.34-.9-.63-2.7-.9-7.38-.9-2.34,0-3.33.09-3.69.36-.63.45-.72,1.17-.72,4.41v.63l.09,10.17c.09,9.45,1.35,11.61,6.75,12.24,4.14.54,4.5.63,4.5,1.62,0,.72-.63.99-2.52.99h-1.8l-4.5-.36c-2.16-.18-3.87-.27-5.58-.27a13.293,13.293,0,0,0-1.89.09l-4.5.18-2.52.09h-.99a1.341,1.341,0,0,1-1.17-1.08c0-.81.63-1.08,3.06-1.62,3.96-.81,5.04-5.04,5.04-19.35,0-2.88-.09-6.39-.18-10.62-.09-4.77-.18-8.01-.27-9.81l-.54-9.81c-.27-6.84-1.08-8.1-5.22-8.82l-1.62-.27c-.99-.18-1.44-.54-1.44-1.17q0-1.08,1.35-1.08l.27.09,2.25.09c.72.09,1.8.09,3.33.18,2.52,0,4.23.09,5.04.09,1.8,0,4.32-.09,7.56-.36q4.05-.27,6.48-.27c11.43,0,19.62,6.39,19.62,15.48,0,6.48-4.14,12.06-12.15,16.11Zm-8.55-.72c8.1,0,13.68-5.04,13.68-12.42,0-9.18-7.74-15.84-18.45-15.84-3.96,0-4.77,2.16-4.77,12.51,0,.54.09,2.61.18,6.21v3.78c.09,3.96.27,4.68,1.26,5.13C323.45,32.49,325.34,32.58,330.56,32.58Z" fill="#d4c194"/>
      <path id="パス_14" data-name="パス 14" d="M438.47,61.65c-4.86,3.51-8.64,4.86-13.68,4.86-6.39,0-10.17-3.15-10.17-8.46,0-5.76,3.69-9.18,11.97-11.16l9.9-2.25a2.488,2.488,0,0,0,1.89-2.34c0-6.66-1.98-12.42-9.81-12.42-3.87,0-7.02,1.98-7.02,4.32a12.546,12.546,0,0,0,.45,2.88,7.187,7.187,0,0,1,.45,2.34c0,.81-.45,1.17-1.35,1.17-3.06,0-5.94-1.62-5.94-3.33,0-5.49,7.29-10.08,15.93-10.08,7.56,0,13.59,3.87,13.59,8.82,0,3.87-.36,14.94-.36,19.89s1.8,7.47,5.4,7.47c.54,0,1.08-.36,1.8-.36.27,0,.45.18.45.54,0,1.35-2.79,2.52-5.85,2.52-3.33,0-4.59-.72-7.65-4.41Zm-.99-15.12a1.532,1.532,0,0,0-.63.09c-12.15,2.34-15.66,4.77-15.66,10.17,0,4.05,3.33,6.93,8.19,6.93,5.58,0,8.1-2.16,8.46-7.02.27-3.96.36-6.3.36-9.27,0-.63-.27-.9-.72-.9Z" fill="#d4c194"/>
      <path id="パス_15" data-name="パス 15" d="M495.71,28.08c1.71.45,1.89.72,1.89,3.96V35.1c0,1.17-.27,1.8-.81,1.8-.63,0-.9-.27-2.52-2.07a15.9,15.9,0,0,0-10.98-5.13c-6.57,0-10.44,5.22-10.44,14.04,0,10.89,6.66,18.36,16.29,18.36a14.874,14.874,0,0,0,10.08-4.14,2.339,2.339,0,0,1,1.44-.72c.36,0,.54.27.54.72a2.317,2.317,0,0,1-.63,1.44A21.6,21.6,0,0,1,485,66.51a18.728,18.728,0,0,1-18.81-18.99c0-11.97,9.18-20.7,21.87-20.7a31.468,31.468,0,0,1,7.65,1.26Z" fill="#d4c194"/>
      <path id="パス_16" data-name="パス 16" d="M544.76,28.08c1.71.45,1.89.72,1.89,3.96V35.1c0,1.17-.27,1.8-.81,1.8-.63,0-.9-.27-2.52-2.07a15.9,15.9,0,0,0-10.98-5.13c-6.57,0-10.44,5.22-10.44,14.04,0,10.89,6.66,18.36,16.29,18.36a14.874,14.874,0,0,0,10.08-4.14,2.339,2.339,0,0,1,1.44-.72c.36,0,.54.27.54.72a2.318,2.318,0,0,1-.63,1.44,21.6,21.6,0,0,1-15.57,7.11,18.728,18.728,0,0,1-18.81-18.99c0-11.97,9.18-20.7,21.87-20.7a31.468,31.468,0,0,1,7.65,1.26Z" fill="#d4c194"/>
      <path id="パス_17" data-name="パス 17" d="M571.85,42.75a.878.878,0,0,0-.99.9,24.434,24.434,0,0,0,4.05,12.15,13.36,13.36,0,0,0,11.25,5.85,20.962,20.962,0,0,0,10.26-3.33,3.108,3.108,0,0,1,1.8-.72c.27,0,.45.27.45.72,0,.9-.99,2.07-3.51,4.05a18.44,18.44,0,0,1-12.15,4.14c-10.89,0-18.45-7.83-18.45-18.99S572.48,27,582.29,27c6.84,0,12.15,3.6,15.48,10.44a8.509,8.509,0,0,1,.9,2.97c0,1.17-.9,1.71-2.7,1.8l-24.12.54Zm1.8-9.81a14.617,14.617,0,0,0-2.34,6.39c0,.45.18.9.81.9,4.23,0,8.55-.09,12.78-.18,4.86-.09,5.67-.27,5.67-1.71,0-1.98-1.44-4.59-3.42-6.57a9.251,9.251,0,0,0-6.48-2.88A8.427,8.427,0,0,0,573.65,32.94Z" fill="#d4c194"/>
      <path id="パス_18" data-name="パス 18" d="M614.87,60.39c0-3.69-.09-4.59-.18-6.03,0-1.35.36-1.89,1.08-1.89.99,0,1.17.27,1.8,2.88,1.26,5.31,5.31,8.82,10.17,8.82,5.13,0,8.73-2.79,8.73-6.75,0-3.51-2.61-5.94-8.28-8.01-10.26-3.6-13.05-6.12-13.05-11.61,0-6.12,5.67-10.53,13.59-10.53,4.59,0,8.37.81,8.64,1.89l1.08,4.77a12.145,12.145,0,0,1,.27,1.8,1.23,1.23,0,0,1-1.26,1.26c-.54,0-.9-.27-1.26-1.17-1.71-3.96-5.13-6.12-9.72-6.12-4.32,0-6.66,1.8-6.66,5.13,0,3.78,1.26,4.59,11.79,8.1,6.21,2.07,9.27,5.67,9.27,11.07a12.447,12.447,0,0,1-12.6,12.51,44.069,44.069,0,0,1-9.45-1.71c-3.15-.9-3.96-1.35-3.96-1.89V60.39Z" fill="#d4c194"/>
      <path id="パス_19" data-name="パス 19" d="M658.88,60.39c0-3.69-.09-4.59-.18-6.03,0-1.35.36-1.89,1.08-1.89.99,0,1.17.27,1.8,2.88,1.26,5.31,5.31,8.82,10.17,8.82,5.13,0,8.73-2.79,8.73-6.75,0-3.51-2.61-5.94-8.28-8.01-10.26-3.6-13.05-6.12-13.05-11.61,0-6.12,5.67-10.53,13.59-10.53,4.59,0,8.37.81,8.64,1.89l1.08,4.77a12.145,12.145,0,0,1,.27,1.8,1.23,1.23,0,0,1-1.26,1.26c-.54,0-.9-.27-1.26-1.17-1.71-3.96-5.13-6.12-9.72-6.12-4.32,0-6.66,1.8-6.66,5.13,0,3.78,1.26,4.59,11.79,8.1,6.21,2.07,9.27,5.67,9.27,11.07a12.447,12.447,0,0,1-12.6,12.51,44.069,44.069,0,0,1-9.45-1.71c-3.15-.9-3.96-1.35-3.96-1.89V60.39Z" fill="#d4c194"/>
    </g>
  </g>
</svg>
