<svg xmlns="http://www.w3.org/2000/svg" width="1601.46" height="87.06" viewBox="0 0 1601.46 87.06">
  <g id="taxi01" transform="translate(0 0)">
    <g id="_背景">
      <line id="線_1" data-name="線 1" x2="1601.46" transform="translate(0 86.06)" fill="none" stroke="#d4c194" stroke-miterlimit="10" stroke-width="2"/>
    </g>
    <g id="_レイヤー_2-2">
      <path id="パス_1" data-name="パス 1" d="M182.27,1.44c8.01,0,23.94-.36,26.28-.36,1.35,0,1.98,1.89,2.07,6.21l.09,2.52c0,1.98-.36,2.88-1.08,2.88-.63,0-.99-.54-1.17-2.16-.27-3.06-1.71-4.05-5.94-4.32-3.15-.27-9.72-.36-14.58-.36-3.69,0-3.96.36-3.96,6.03-.09,14.04-.27,27.99-.27,42.03,0,6.39,1.8,9.09,5.85,9.09,1.62.09,2.25.36,2.25,1.17,0,.9-.54,1.17-2.7,1.17-4.86,0-6.57-.09-9-.09-3.33,0-6.75.27-10.62.27-.72,0-1.17-.27-1.17-.72,0-.81.63-1.17,1.89-1.35,6.3-.63,6.66-1.53,6.84-15.75.18-12.15.36-24.21.36-37.26,0-4.32-.36-4.5-8.01-4.5-11.7,0-15.12.99-16.38,4.68l-.63,2.25c-.36.99-.72,1.44-1.17,1.44s-.63-.27-.63-.9c0-.72.18-3.42.81-8.46.36-3.15.99-3.78,4.32-3.78,2.97,0,9.54.27,14.76.27h11.79Z" fill="#d4c194"/>
      <path id="パス_2" data-name="パス 2" d="M225.38,65.52c-.72,0-1.08-.27-1.08-.9,0-.72.36-.9,1.71-1.08,2.07-.27,4.5-2.7,6.21-6.3Q244.64,31.32,257.15,5.4c2.07-4.32,2.79-5.4,3.24-5.4.63,0,.9.99,2.79,5.76,1.17,2.88,14.4,34.11,21.15,50.4,1.8,4.32,3.6,5.85,8.37,6.93,1.8.45,2.34.72,2.34,1.44,0,.63-1.17,1.26-2.61,1.26s-4.77-.81-10.71-.81c-3.6,0-6.21.45-8.1.45-.9,0-1.62-.45-1.62-.99,0-.72.81-1.26,2.16-1.35,1.89-.27,2.97-1.17,2.97-2.7,0-1.62-3.6-13.23-6.48-18.54-.54-1.08-.72-1.35-2.52-1.35l-22.59.36c-1.26,0-1.53.09-1.8.81-4.5,9.81-7.38,15.48-7.38,16.92,0,2.52,1.35,3.51,6.21,4.86.72.18.99.45.99.99,0,.63-.54.99-1.8.99-2.16,0-5.04-.27-7.65-.27-4.05,0-8.19.36-8.73.36Zm41.94-33.03-6.75-15.48-1.8-3.15c-.27-.63-.63-.99-.81-.99-.45,0-.99.9-2.25,3.51l-8.46,18.18a3.011,3.011,0,0,0-.36,1.26c0,.72.72,1.08,1.71,1.08l17.91-.09c1.44,0,1.8-.27,1.8-1.35a1.142,1.142,0,0,0-.09-.54Z" fill="#d4c194"/>
      <path id="パス_3" data-name="パス 3" d="M337.25,37.44,324.2,55.8c-1.53,2.16-2.07,3.24-2.07,4.41,0,2.25,1.17,3.06,4.41,3.06,1.17,0,1.8.36,1.8,1.17s-.36.99-1.98.99a13.293,13.293,0,0,1-1.89-.09c-1.08,0-2.61-.09-4.41-.09s-3.51.09-4.59.09c-2.52.09-3.87.18-4.14.18-2.7,0-2.97-.09-2.97-.99s.18-.99,2.25-1.53c2.7-.63,7.38-4.77,10.89-9.63l13.59-19.08L320.33,12.51c-3.51-5.22-7.56-8.46-10.71-8.55-1.53-.09-1.89-.27-1.89-1.17,0-.81.36-.99,1.89-.99h.36l3.69.09,5.85.27,5.94-.18c1.62-.09,2.7-.18,3.33-.27a1.982,1.982,0,0,1,.72-.09.964.964,0,0,1,.36,1.89l-1.89.36a1.746,1.746,0,0,0-1.71,1.89c0,1.17.45,2.07,2.34,4.95l11.25,17.01L352.1,10.44c1.35-1.8,1.8-2.79,1.8-3.78,0-2.07-.72-2.61-3.78-2.97-1.08-.18-1.89-.63-1.89-1.17s.9-.9,2.16-.9l3.51.09h1.35c1.44,0,2.7,0,3.78-.09l4.86-.18,2.52.09c.72,0,1.08.18,1.08.72,0,.36-.36.72-.81.9l-3.33,1.08a12.072,12.072,0,0,0-2.88,1.89,18.922,18.922,0,0,0-2.97,3.06L341.75,30.24l17.64,26.37c2.7,4.05,4.77,5.67,8.55,6.39,1.17.27,1.71.72,1.71,1.53v.18c-.09.45-.36.72-.63.72,0,0-.9,0-2.61-.09L362,65.07l-2.88-.18c-.81,0-2.43.18-4.86.36-1.35.09-2.61.27-3.6.36a4.382,4.382,0,0,1-1.08.09c-1.35,0-2.16-.36-2.16-1.17,0-.99.36-1.17,2.88-1.71a1.933,1.933,0,0,0,1.8-1.89c0-1.08-.09-1.26-1.8-3.87L337.25,37.44Z" fill="#d4c194"/>
      <path id="パス_4" data-name="パス 4" d="M393.86,2.16c3.96,0,6.21-.18,10.17-.27,1.71.09,2.34.27,2.34.99s-.45.99-2.7,1.62c-2.97.72-4.14,2.43-4.23,6.39-.45,13.86-1.26,27.63-1.26,43.65,0,5.76,2.34,8.28,7.92,8.73,1.53.09,2.16.45,2.16,1.35,0,.54-.72.81-2.34.81-3.33,0-6.66-.45-10.35-.45-4.32,0-8.64.63-10.71.63-.81,0-1.62-.54-1.62-1.08,0-1.08.54-1.44,2.61-1.8,4.14-.72,4.59-1.53,4.86-6.57,1.08-18.45,1.35-33.57,1.35-44.46,0-4.95-1.53-6.84-6.3-7.47-2.52-.27-2.97-.54-2.97-1.35,0-.72.63-.99,2.16-.99,2.34,0,5.67.27,8.91.27Z" fill="#d4c194"/>
      <path id="パス_5" data-name="パス 5" d="M481.16,61.65c-4.86,3.51-8.64,4.86-13.68,4.86-6.39,0-10.17-3.15-10.17-8.46,0-5.76,3.69-9.18,11.97-11.16l9.9-2.25a2.488,2.488,0,0,0,1.89-2.34c0-6.66-1.98-12.42-9.81-12.42-3.87,0-7.02,1.98-7.02,4.32a12.546,12.546,0,0,0,.45,2.88,7.187,7.187,0,0,1,.45,2.34c0,.81-.45,1.17-1.35,1.17-3.06,0-5.94-1.62-5.94-3.33,0-5.49,7.29-10.08,15.93-10.08,7.56,0,13.59,3.87,13.59,8.82,0,3.87-.36,14.94-.36,19.89s1.8,7.47,5.4,7.47c.54,0,1.08-.36,1.8-.36.27,0,.45.18.45.54,0,1.35-2.79,2.52-5.85,2.52-3.33,0-4.59-.72-7.65-4.41Zm-.99-15.12a1.532,1.532,0,0,0-.63.09c-12.15,2.34-15.66,4.77-15.66,10.17,0,4.05,3.33,6.93,8.19,6.93,5.58,0,8.1-2.16,8.46-7.02.27-3.96.36-6.3.36-9.27,0-.63-.27-.9-.72-.9Z" fill="#d4c194"/>
      <path id="パス_6" data-name="パス 6" d="M538.4,28.08c1.71.45,1.89.72,1.89,3.96V35.1c0,1.17-.27,1.8-.81,1.8-.63,0-.9-.27-2.52-2.07a15.9,15.9,0,0,0-10.98-5.13c-6.57,0-10.44,5.22-10.44,14.04,0,10.89,6.66,18.36,16.29,18.36a14.874,14.874,0,0,0,10.08-4.14,2.339,2.339,0,0,1,1.44-.72c.36,0,.54.27.54.72a2.318,2.318,0,0,1-.63,1.44,21.6,21.6,0,0,1-15.57,7.11,18.728,18.728,0,0,1-18.81-18.99c0-11.97,9.18-20.7,21.87-20.7a31.468,31.468,0,0,1,7.65,1.26Z" fill="#d4c194"/>
      <path id="パス_7" data-name="パス 7" d="M587.45,28.08c1.71.45,1.89.72,1.89,3.96V35.1c0,1.17-.27,1.8-.81,1.8-.63,0-.9-.27-2.52-2.07a15.9,15.9,0,0,0-10.98-5.13c-6.57,0-10.44,5.22-10.44,14.04,0,10.89,6.66,18.36,16.29,18.36a14.874,14.874,0,0,0,10.08-4.14,2.339,2.339,0,0,1,1.44-.72c.36,0,.54.27.54.72a2.318,2.318,0,0,1-.63,1.44,21.6,21.6,0,0,1-15.57,7.11,18.728,18.728,0,0,1-18.81-18.99c0-11.97,9.18-20.7,21.87-20.7a31.468,31.468,0,0,1,7.65,1.26Z" fill="#d4c194"/>
      <path id="パス_8" data-name="パス 8" d="M614.54,42.75a.878.878,0,0,0-.99.9A24.434,24.434,0,0,0,617.6,55.8a13.36,13.36,0,0,0,11.25,5.85,20.962,20.962,0,0,0,10.26-3.33,3.108,3.108,0,0,1,1.8-.72c.27,0,.45.27.45.72,0,.9-.99,2.07-3.51,4.05a18.44,18.44,0,0,1-12.15,4.14c-10.89,0-18.45-7.83-18.45-18.99S615.17,27,624.98,27c6.84,0,12.15,3.6,15.48,10.44a8.509,8.509,0,0,1,.9,2.97c0,1.17-.9,1.71-2.7,1.8l-24.12.54Zm1.8-9.81A14.617,14.617,0,0,0,614,39.33c0,.45.18.9.81.9,4.23,0,8.55-.09,12.78-.18,4.86-.09,5.67-.27,5.67-1.71,0-1.98-1.44-4.59-3.42-6.57a9.251,9.251,0,0,0-6.48-2.88A8.427,8.427,0,0,0,616.34,32.94Z" fill="#d4c194"/>
      <path id="パス_9" data-name="パス 9" d="M657.56,60.39c0-3.69-.09-4.59-.18-6.03,0-1.35.36-1.89,1.08-1.89.99,0,1.17.27,1.8,2.88,1.26,5.31,5.31,8.82,10.17,8.82,5.13,0,8.73-2.79,8.73-6.75,0-3.51-2.61-5.94-8.28-8.01-10.26-3.6-13.05-6.12-13.05-11.61,0-6.12,5.67-10.53,13.59-10.53,4.59,0,8.37.81,8.64,1.89l1.08,4.77a12.145,12.145,0,0,1,.27,1.8,1.23,1.23,0,0,1-1.26,1.26c-.54,0-.9-.27-1.26-1.17-1.71-3.96-5.13-6.12-9.72-6.12-4.32,0-6.66,1.8-6.66,5.13,0,3.78,1.26,4.59,11.79,8.1,6.21,2.07,9.27,5.67,9.27,11.07a12.447,12.447,0,0,1-12.6,12.51,44.069,44.069,0,0,1-9.45-1.71c-3.15-.9-3.96-1.35-3.96-1.89V60.39Z" fill="#d4c194"/>
      <path id="パス_10" data-name="パス 10" d="M701.57,60.39c0-3.69-.09-4.59-.18-6.03,0-1.35.36-1.89,1.08-1.89.99,0,1.17.27,1.8,2.88,1.26,5.31,5.31,8.82,10.17,8.82,5.13,0,8.73-2.79,8.73-6.75,0-3.51-2.61-5.94-8.28-8.01-10.26-3.6-13.05-6.12-13.05-11.61,0-6.12,5.67-10.53,13.59-10.53,4.59,0,8.37.81,8.64,1.89l1.08,4.77a12.145,12.145,0,0,1,.27,1.8,1.23,1.23,0,0,1-1.26,1.26c-.54,0-.9-.27-1.26-1.17-1.71-3.96-5.13-6.12-9.72-6.12-4.32,0-6.66,1.8-6.66,5.13,0,3.78,1.26,4.59,11.79,8.1,6.21,2.07,9.27,5.67,9.27,11.07a12.447,12.447,0,0,1-12.6,12.51,44.069,44.069,0,0,1-9.45-1.71c-3.15-.9-3.96-1.35-3.96-1.89V60.39Z" fill="#d4c194"/>
    </g>
  </g>
</svg>
