<?xml version="1.0" encoding="UTF-8"?><svg id="_レイヤー_2" xmlns="http://www.w3.org/2000/svg" viewBox="0 0 1600 90.13"><defs><style>.cls-1{stroke-width:2px;}.cls-1,.cls-2{fill:none;stroke:#bba579;stroke-miterlimit:10;}.cls-3{fill:#bba579;}.cls-2{stroke-width:5px;}</style></defs><g id="_レイヤー"><line class="cls-1" y1="87.49" x2="1600" y2="87.49"/><path class="cls-3" d="M187.79,13.2v19.7c0,1.5.14,2.41.42,2.72.28.31,1.11.47,2.51.47h7.52c3.42,0,6.12-.2,8.11-.59,1.76-.36,2.9-.83,3.42-1.42.52-.59.99-1.95,1.42-4.1.17-.81.58-1.2,1.25-1.17.63.03.95.47.95,1.32,0,.23-.02.58-.05,1.07-.29,3.15-.43,6.02-.43,8.62,0,1.98.1,3.94.29,5.89.06.65.1,1.12.1,1.41,0,.81-.32,1.22-.95,1.22-.7,0-1.12-.36-1.25-1.07l-.29-1.37c-.39-2.18-1.17-3.66-2.34-4.44-1.17-.78-3.15-1.17-5.94-1.17h-10.77c-1.59,0-2.66.16-3.19.49-.54.33-.8.98-.8,1.96l.05,1.61v18c0,2.77.5,4.5,1.49,5.19.99.69,3.5,1.03,7.53,1.03,12.77,0,20.98-2.88,24.62-8.64.37-.55.73-.85,1.1-.88.6-.03.9.39.9,1.27,0,2.11-1.19,4.62-3.56,7.54-2.86,3.5-6.48,5.25-10.84,5.25-.94,0-2.21-.07-3.81-.2-6.22-.59-11.36-.88-15.43-.88-5.7,0-9.72.2-12.06.59-1.24.23-2.08.34-2.54.34-1.04,0-1.56-.35-1.56-1.05,0-.54.42-.92,1.27-1.15l1.86-.54c2.34-.65,3.52-2.93,3.52-6.85l.05-3.18V18.87c0-4.66-.51-7.8-1.54-9.41-1.03-1.61-3.02-2.42-5.98-2.42-.94,0-1.42-.3-1.42-.91,0-.89.73-1.34,2.2-1.34.81,0,1.9.08,3.27.24,4.65.52,10.25.78,16.8.78,3.97,0,7.49-.06,10.55-.2l6.93-.34c1.92-.06,3.09-.13,3.52-.2.88-.13,1.53-.2,1.95-.2,1.07,0,1.61.47,1.61,1.41,0,.29-.05.67-.15,1.12-.1.45-.23,1.75-.39,3.89l-.2,2.87c-.17,1.88-.33,3.06-.5,3.53-.17.47-.53.72-1.09.75-.63.03-.95-.46-.95-1.46v-1.27c0-1.04-.2-2.03-.58-2.98-.62-1.46-1.87-2.44-3.75-2.93-1.88-.49-5.35-.73-10.38-.73h-7.65c-2.02,0-3.31.25-3.9.76-.59.51-.88,1.62-.88,3.36Z"/><path class="cls-3" d="M255.12,39.01c4.36-5.18,8.89-7.76,13.57-7.76,5.21,0,9.33,2.13,12.35,6.4,2.08,2.93,3.12,7.4,3.12,13.4v11.68l-.05,1.47.15,2.35c.36,2.15,1.73,3.41,4.1,3.77l2.05.29c.88.13,1.33.45,1.37.95.03.7-.5,1.05-1.61,1.05-.36,0-.99-.06-1.9-.17-1.07-.15-3.05-.22-5.94-.22l-4.82.15h-1.85l-1.41.1-.68-.15c-.23-.13-.34-.38-.34-.75,0-.5.29-.82.88-.95l1.46-.39c1.3-.33,1.95-1.5,1.95-3.51v-16.82c0-4.52-1.04-8-3.13-10.46-2.09-2.45-5.06-3.68-8.91-3.68-2.71,0-5.11.8-7.22,2.39-2.1,1.6-3.16,3.42-3.16,5.47v18.64l.05,1.47.05,2.45c.16,2.74,2.42,4.24,6.79,4.5,1.07.1,1.61.45,1.61,1.05s-.37.9-1.12.9c-.55,0-1.38-.09-2.49-.28-.62-.07-2.15-.11-4.59-.11-5.18,0-8.27.07-9.28.22-1.01.11-1.66.17-1.95.17-.62,0-.91-.27-.88-.8.03-.4.34-.72.93-.95,1.66-.58,2.77-1.3,3.34-2.15.57-.85.85-2.21.85-4.1v-22.04c0-2.31-.28-3.88-.83-4.71-.55-.83-1.6-1.24-3.12-1.24l-2.1.05c-.29,0-.55-.07-.78-.2-.29-.13-.44-.37-.44-.7,0-.47.42-.79,1.27-.95,2.18-.39,4.28-1.06,6.3-2l2.59-1.27c1.01-.49,1.64-.8,1.9-.93.46-.26.85-.39,1.17-.39.59,0,.85.47.78,1.42-.03.52-.05,1.14-.05,1.86v5.52Z"/><path class="cls-3" d="M320.24,37.16v24.56c0,3.19.46,5.26,1.37,6.2,1.33,1.4,3.24,2.1,5.71,2.1,1.99,0,3.66-.36,5.03-1.07l2.54-1.22.29-.1c.39,0,.59.18.59.53,0,1.07-1.29,2.22-3.86,3.46-2.57,1.24-4.96,1.86-7.18,1.86-7.49,0-11.23-3.9-11.23-11.7v-24.63h-4.35c-.85,0-1.27-.25-1.27-.74,0-.46.42-1.04,1.27-1.76,3.81-3.23,6.72-6.46,8.74-9.7.88-1.44,1.5-2.16,1.86-2.16.46,0,.68.42.68,1.27l-.2,8.45h10.4c1.43,0,2.54-.26,3.32-.78.49-.36.85-.55,1.07-.59.36-.06.52.12.49.54,0,.16-.15.57-.44,1.23l-1.12,2.81c-.36.95-1.07,1.43-2.15,1.43h-11.57Z"/><path class="cls-3" d="M364.32,40.14c3.78-5.92,7.26-8.89,10.45-8.89,1.01,0,2.34.6,3.98,1.81,1.64,1.2,2.5,2.18,2.56,2.93.03.48-.49,1.38-1.56,2.68-1.07,1.3-1.83,1.97-2.29,2-.23,0-.94-.39-2.14-1.17-1.4-.98-2.73-1.46-3.99-1.46-1.98,0-3.64.72-4.97,2.15-1.33,1.43-2,3.22-2,5.37v17.4c0,2.73.37,4.67,1.1,5.82.73,1.15,2.01,1.81,3.83,1.97l2.54.2c1.04.07,1.56.39,1.56.98,0,.65-.46.98-1.37.98-.23,0-1-.08-2.3-.24-.62-.07-1.53-.1-2.74-.1l-3.52-.05h-2.15c-2.55,0-4.36.08-5.43.24-.85.13-1.44.21-1.76.24-.88.03-1.32-.29-1.32-.95,0-.54.5-.91,1.51-1.1,1.4-.33,2.3-.93,2.71-1.81.41-.88.61-2.75.61-5.62v-20.95c0-3.74-1.79-5.62-5.37-5.62l-1.66.05c-.75,0-1.12-.33-1.12-1,0-.4.24-.7.73-.9.29-.06.65-.11,1.07-.15,3.06-.29,6.67-1.73,10.84-4.3.42-.23.8-.36,1.12-.39.75-.03,1.12.52,1.12,1.66l-.05.93v7.28Z"/><path class="cls-3" d="M420.56,50.73v-6.02c0-3.72-.7-6.29-2.1-7.72-1.89-1.94-4.43-2.91-7.62-2.91-4.3,0-6.45,1.81-6.45,5.42,0,1.07.21,2.29.63,3.68.2.58.31,1.1.34,1.55.03.58-.29.87-.97.87-1.52,0-2.9-.33-4.15-.98-1.25-.65-1.87-1.37-1.87-2.15,0-2.01,1.09-4.18,3.27-6.51,2.93-3.14,6.82-4.72,11.67-4.72,4.43,0,7.86.98,10.3,2.95s3.66,4.74,3.66,8.31v19.12c0,3.02.37,5.18,1.1,6.46.73,1.28,1.96,1.93,3.69,1.93.49,0,.88-.03,1.17-.08.59-.14.98-.21,1.17-.21.55-.03.81.2.78.68-.03.59-.8,1.18-2.3,1.78-1.5.6-2.97.9-4.41.9-2.68,0-5.1-1.66-7.25-4.98-4.71,3.58-9.08,5.37-13.11,5.37-3.05,0-5.48-.82-7.29-2.47s-2.7-3.85-2.7-6.62c0-3.74,1.71-6.65,5.12-8.72,3.41-2.07,9.18-3.72,17.3-4.96ZM420.56,52.69c-5.05.45-8.95,1.59-11.7,3.42-2.75,1.83-4.12,4.17-4.12,7.02,0,2.23.65,4.01,1.97,5.32,1.31,1.31,3.08,1.97,5.31,1.97,2.72,0,5-.89,6.84-2.67,1.13-1.13,1.7-2.93,1.7-5.39v-9.67Z"/><path class="cls-3" d="M465.32,39.01c4.36-5.18,8.89-7.76,13.57-7.76,5.21,0,9.33,2.13,12.35,6.4,2.08,2.93,3.12,7.4,3.12,13.4v11.68l-.05,1.47.15,2.35c.36,2.15,1.73,3.41,4.1,3.77l2.05.29c.88.13,1.33.45,1.37.95.03.7-.5,1.05-1.61,1.05-.36,0-.99-.06-1.9-.17-1.07-.15-3.05-.22-5.94-.22l-4.82.15h-1.85l-1.41.1-.68-.15c-.23-.13-.34-.38-.34-.75,0-.5.29-.82.88-.95l1.46-.39c1.3-.33,1.95-1.5,1.95-3.51v-16.82c0-4.52-1.04-8-3.13-10.46-2.09-2.45-5.06-3.68-8.91-3.68-2.71,0-5.11.8-7.22,2.39-2.1,1.6-3.16,3.42-3.16,5.47v18.64l.05,1.47.05,2.45c.16,2.74,2.42,4.24,6.79,4.5,1.07.1,1.61.45,1.61,1.05s-.37.9-1.12.9c-.55,0-1.38-.09-2.49-.28-.62-.07-2.15-.11-4.59-.11-5.18,0-8.27.07-9.28.22-1.01.11-1.66.17-1.95.17-.62,0-.91-.27-.88-.8.03-.4.34-.72.93-.95,1.66-.58,2.77-1.3,3.34-2.15.57-.85.85-2.21.85-4.1v-22.04c0-2.31-.28-3.88-.83-4.71-.55-.83-1.6-1.24-3.12-1.24l-2.1.05c-.29,0-.55-.07-.78-.2-.29-.13-.44-.37-.44-.7,0-.47.42-.79,1.27-.95,2.18-.39,4.28-1.06,6.3-2l2.59-1.27c1.01-.49,1.64-.8,1.9-.93.46-.26.85-.39,1.17-.39.59,0,.85.47.78,1.42-.03.52-.05,1.14-.05,1.86v5.52Z"/><path class="cls-3" d="M540.31,31.25c2.8,0,5.3.35,7.5,1.06s3.3,1.51,3.3,2.41l-.05,1.46.34,3.71c0,1.73-.4,2.62-1.19,2.69-.36.03-.83-.45-1.39-1.45-1.04-1.87-2.79-3.48-5.24-4.85s-4.83-2.05-7.14-2.05c-3.18,0-5.78,1.46-7.8,4.36-2.01,2.91-3.02,6.66-3.02,11.24,0,5.43,1.55,10.02,4.65,13.78,3.1,3.75,6.9,5.63,11.38,5.63,3.61,0,7.15-1.48,10.62-4.44.43-.36.83-.55,1.2-.59.5-.06.75.16.75.68,0,.71-.78,1.77-2.34,3.16-4.04,3.63-8.89,5.44-14.55,5.44-5.21,0-9.56-1.89-13.06-5.68-3.5-3.79-5.25-8.48-5.25-14.07,0-6.24,2.08-11.55,6.23-15.92,4.15-4.37,9.17-6.56,15.06-6.56Z"/><path class="cls-3" d="M577.61,47.95l-.05,1.07c0,5.57,1.54,10.25,4.62,14.04,3.08,3.79,6.87,5.69,11.37,5.69,3.55,0,7.42-1.59,11.59-4.79.26-.2.51-.31.73-.34.46-.03.69.23.69.78,0,.97-1.14,2.35-3.42,4.13-4.23,3.3-8.71,4.96-13.43,4.96-5.31,0-9.76-2.02-13.35-6.05-3.6-4.03-5.4-9.02-5.4-14.97s1.86-10.61,5.57-14.85,8.06-6.37,13.04-6.37c5.44,0,9.78,2.26,13.04,6.79.78,1.11,1.58,2.6,2.39,4.49.81,1.89,1.22,3.21,1.22,3.96,0,1.07-1.06,1.61-3.18,1.61l-3.62-.05-3.33-.1h-18.49ZM577.9,45.26h16.55c2.57,0,3.86-.52,3.86-1.56,0-2.54-1.1-4.9-3.3-7.08-2.2-2.18-4.58-3.27-7.15-3.27s-4.89,1.07-6.67,3.2c-1.77,2.13-2.87,5.04-3.3,8.72Z"/><path class="cls-3" d="M674.26,39.01c4.19-5.18,8.76-7.76,13.7-7.76,4.58,0,8.29,1.58,11.14,4.74,2.84,3.16,4.27,7.29,4.27,12.4v15.48c0,2.47.41,4.17,1.22,5.08.81.91,2.54,1.58,5.18,2,.88.13,1.32.49,1.32,1.07s-.44.88-1.32.88c-.39,0-1.19-.05-2.39-.15-2.41-.16-4.48-.24-6.2-.24-2.86,0-4.98.09-6.35.26-.78.09-1.29.13-1.51.13-.88,0-1.33-.3-1.37-.9-.03-.4.29-.74.98-1,1.66-.62,2.69-1.17,3.08-1.68.39-.5.59-1.48.59-2.94l.05-1.51v-16.19c0-4.12-1.06-7.38-3.17-9.8-2.11-2.42-4.94-3.62-8.48-3.62-2.73,0-5.2.85-7.41,2.56-2.21,1.71-3.31,3.62-3.31,5.74v18.93c0,3.33.37,5.48,1.12,6.46.75.98,2.57,1.66,5.47,2.05,1.11.16,1.66.56,1.66,1.19,0,.54-.36.81-1.08.81-.36,0-1.26-.07-2.69-.22-1.17-.12-3.65-.17-7.44-.17-1.31,0-3.18.09-5.63.26-1.08.09-1.83.13-2.25.13-.78,0-1.19-.25-1.22-.76-.03-.57.34-.97,1.12-1.19,1.92-.58,3.1-1.25,3.54-2,.44-.75.66-2.52.66-5.32V12.89c0-4-1.09-5.94-3.27-5.81l-2.49.15c-.26,0-.49-.05-.68-.15-.23-.13-.34-.35-.34-.65,0-.47.38-.8,1.13-1,2.06-.49,4.34-1.33,6.86-2.54l3.82-1.81c.39-.2.73-.29,1.03-.29.55,0,.83.36.83,1.07,0,.2-.03.59-.1,1.17-.03.55-.05,1.38-.05,2.49v33.5Z"/><path class="cls-3" d="M750.91,50.73v-6.02c0-3.72-.7-6.29-2.1-7.72-1.89-1.94-4.43-2.91-7.62-2.91-4.3,0-6.45,1.81-6.45,5.42,0,1.07.21,2.29.63,3.68.2.58.31,1.1.34,1.55.03.58-.29.87-.97.87-1.52,0-2.9-.33-4.15-.98-1.25-.65-1.87-1.37-1.87-2.15,0-2.01,1.09-4.18,3.27-6.51,2.93-3.14,6.82-4.72,11.67-4.72,4.43,0,7.86.98,10.3,2.95s3.66,4.74,3.66,8.31v19.12c0,3.02.37,5.18,1.1,6.46.73,1.28,1.96,1.93,3.69,1.93.49,0,.88-.03,1.17-.08.59-.14.98-.21,1.17-.21.55-.03.81.2.78.68-.03.59-.8,1.18-2.3,1.78-1.5.6-2.97.9-4.41.9-2.68,0-5.1-1.66-7.25-4.98-4.71,3.58-9.08,5.37-13.11,5.37-3.05,0-5.48-.82-7.29-2.47s-2.7-3.85-2.7-6.62c0-3.74,1.71-6.65,5.12-8.72,3.41-2.07,9.18-3.72,17.3-4.96ZM750.91,52.69c-5.05.45-8.95,1.59-11.7,3.42-2.75,1.83-4.12,4.17-4.12,7.02,0,2.23.65,4.01,1.97,5.32,1.31,1.31,3.08,1.97,5.31,1.97,2.72,0,5-.89,6.84-2.67,1.13-1.13,1.7-2.93,1.7-5.39v-9.67Z"/><path class="cls-3" d="M794.75,3.67v57.31c0,2.67.31,4.72.93,6.16.72,1.63,2.73,2.72,6.05,3.27.91.16,1.38.49,1.42,1,.03.73-.31,1.1-1.03,1.1-.29,0-.72-.07-1.27-.2-.49-.1-1.22-.15-2.2-.15l-4.26.05h-2.54c-3.1,0-5.01.05-5.73.15-1.04.16-1.67.24-1.86.24-.85,0-1.29-.32-1.32-.96-.03-.54.42-.94,1.37-1.19,1.46-.42,2.45-.98,2.95-1.68.5-.7.76-1.83.76-3.39V11.23c0-2.99-1.04-4.49-3.12-4.49l-2.44.1c-.33,0-.6-.03-.83-.1-.39-.17-.59-.43-.59-.8,0-.47.42-.82,1.27-1.05,1.11-.26,2.12-.57,3.04-.93l2.99-1.22c2.29-.91,3.87-1.69,4.75-2.34.39-.26.72-.39.98-.39.49-.03.73.68.73,2.15l-.05,1.51Z"/><path class="cls-3" d="M832.14,3.67v57.31c0,2.67.31,4.72.93,6.16.72,1.63,2.73,2.72,6.05,3.27.91.16,1.38.49,1.42,1,.03.73-.31,1.1-1.03,1.1-.29,0-.72-.07-1.27-.2-.49-.1-1.22-.15-2.2-.15l-4.26.05h-2.54c-3.1,0-5.01.05-5.73.15-1.04.16-1.67.24-1.86.24-.85,0-1.29-.32-1.32-.96-.03-.54.42-.94,1.37-1.19,1.46-.42,2.45-.98,2.95-1.68.5-.7.76-1.83.76-3.39V11.23c0-2.99-1.04-4.49-3.12-4.49l-2.44.1c-.33,0-.6-.03-.83-.1-.39-.17-.59-.43-.59-.8,0-.47.42-.82,1.27-1.05,1.11-.26,2.12-.57,3.04-.93l2.99-1.22c2.29-.91,3.87-1.69,4.75-2.34.39-.26.72-.39.98-.39.49-.03.73.68.73,2.15l-.05,1.51Z"/><line class="cls-2" x1="161.19" y1="87.63" x2="857.68" y2="87.63"/></g></svg>