<svg xmlns="http://www.w3.org/2000/svg" width="750.314" height="74.249" viewBox="0 0 750.314 74.249">
  <g id="_レイヤー" transform="translate(-93.5 9.734)">
    <path id="パス_13" data-name="パス 13" d="M0,.593H750.314" transform="translate(93.5 61.917)" fill="none" stroke="#bba579" stroke-width="2"/>
    <path id="パス_1" data-name="パス 1" d="M184.825,11.677V27.808a4.166,4.166,0,0,0,.344,2.227c.229.254.909.385,2.055.385h6.158a36.1,36.1,0,0,0,6.641-.483,5.307,5.307,0,0,0,2.8-1.163,8.193,8.193,0,0,0,1.163-3.357c.139-.663.475-.983,1.024-.958.516.025.778.385.778,1.081,0,.188-.016.475-.041.876q-.356,3.869-.352,7.059,0,2.432.237,4.823c.049.532.082.917.082,1.155,0,.663-.262,1-.778,1a.952.952,0,0,1-1.024-.876l-.237-1.122a5.246,5.246,0,0,0-1.916-3.636,9.159,9.159,0,0,0-4.864-.958h-8.819a5.606,5.606,0,0,0-2.612.4,1.727,1.727,0,0,0-.655,1.6l.041,1.318V51.924q0,3.4,1.22,4.25t6.166.843q15.685,0,20.16-7.075c.3-.45.6-.7.9-.721.491-.025.737.319.737,1.04q0,2.592-2.915,6.174a10.993,10.993,0,0,1-8.876,4.3c-.77,0-1.81-.057-3.12-.164q-7.64-.725-12.635-.721a68.872,68.872,0,0,0-9.875.483,13.625,13.625,0,0,1-2.08.278q-1.277,0-1.277-.86c0-.442.344-.753,1.04-.942l1.523-.442c1.916-.532,2.882-2.4,2.882-5.609l.041-2.6V16.32q0-5.724-1.261-7.705t-4.9-1.982c-.77,0-1.163-.246-1.163-.745,0-.729.6-1.1,1.8-1.1a24.344,24.344,0,0,1,2.678.2,126.28,126.28,0,0,0,13.757.639c3.251,0,6.133-.049,8.639-.164l5.675-.278c1.572-.049,2.53-.106,2.882-.164a12.329,12.329,0,0,1,1.6-.164c.876,0,1.318.385,1.318,1.155a4.431,4.431,0,0,1-.123.917c-.082.368-.188,1.433-.319,3.185l-.164,2.35a16.066,16.066,0,0,1-.409,2.891.907.907,0,0,1-.893.614c-.516.025-.778-.377-.778-1.2v-1.04a6.507,6.507,0,0,0-.475-2.44,4.236,4.236,0,0,0-3.071-2.4,39.67,39.67,0,0,0-8.5-.6h-6.264c-1.654,0-2.71.2-3.194.622s-.721,1.327-.721,2.751Z" transform="translate(-48.974 -10.609)" fill="#bba579"/>
    <path id="パス_2" data-name="パス 2" d="M252.588,37.423q5.355-6.363,11.112-6.354a11.742,11.742,0,0,1,10.113,5.241q2.555,3.6,2.555,10.973v9.564l-.041,1.2.123,1.924a3.57,3.57,0,0,0,3.357,3.087l1.679.237c.721.106,1.089.368,1.122.778.025.573-.409.86-1.318.86-.295,0-.811-.049-1.556-.139a42.1,42.1,0,0,0-4.864-.18l-3.947.123h-1.515l-1.155.082L267.7,64.7a.641.641,0,0,1-.278-.614c0-.409.237-.671.721-.778l1.2-.319q1.6-.405,1.6-2.874V46.341q0-5.552-2.563-8.565a9.067,9.067,0,0,0-7.3-3.013,9.558,9.558,0,0,0-5.912,1.957,5.615,5.615,0,0,0-2.588,4.479V56.462l.041,1.2.041,2.006q.2,3.366,5.56,3.685c.876.082,1.318.368,1.318.86s-.3.737-.917.737a13.19,13.19,0,0,1-2.039-.229c-.508-.057-1.76-.09-3.759-.09q-6.363,0-7.6.18c-.827.09-1.359.139-1.6.139-.508,0-.745-.221-.721-.655.025-.328.278-.59.762-.778A5.29,5.29,0,0,0,246.4,61.76a6.183,6.183,0,0,0,.7-3.357V40.355a7.6,7.6,0,0,0-.68-3.857,2.855,2.855,0,0,0-2.555-1.015l-1.72.041a1.277,1.277,0,0,1-.639-.164.584.584,0,0,1-.36-.573c0-.385.344-.647,1.04-.778a20.914,20.914,0,0,0,5.159-1.638l2.121-1.04c.827-.4,1.343-.655,1.556-.762a2.048,2.048,0,0,1,.958-.319c.483,0,.7.385.639,1.163-.025.426-.041.934-.041,1.523v4.52Z" transform="translate(-61.603 -15.22)" fill="#bba579"/>
    <path id="パス_3" data-name="パス 3" d="M318,34.557V54.668q0,3.918,1.122,5.077a6.151,6.151,0,0,0,4.676,1.72,8.855,8.855,0,0,0,4.119-.876l2.08-1,.237-.082c.319,0,.483.147.483.434q0,1.314-3.161,2.833a13.61,13.61,0,0,1-5.879,1.523q-9.2,0-9.2-9.581V34.549H308.92c-.7,0-1.04-.2-1.04-.606,0-.377.344-.852,1.04-1.441a34.861,34.861,0,0,0,7.157-7.943q1.081-1.769,1.523-1.769c.377,0,.557.344.557,1.04l-.164,6.919h8.516a4.889,4.889,0,0,0,2.719-.639,2.589,2.589,0,0,1,.876-.483c.295-.049.426.1.4.442a4,4,0,0,1-.36,1.007l-.917,2.3a1.712,1.712,0,0,1-1.761,1.171h-9.474Z" transform="translate(-73.692 -13.869)" fill="#bba579"/>
    <path id="パス_4" data-name="パス 4" d="M361.632,38.35q4.643-7.271,8.557-7.28a6.134,6.134,0,0,1,3.259,1.482c1.343.983,2.047,1.785,2.1,2.4.025.393-.4,1.13-1.277,2.195s-1.5,1.613-1.875,1.638a6.4,6.4,0,0,1-1.752-.958,5.746,5.746,0,0,0-3.267-1.2,5.337,5.337,0,0,0-4.07,1.761,6.21,6.21,0,0,0-1.638,4.4V57.037a9.335,9.335,0,0,0,.9,4.766,3.857,3.857,0,0,0,3.136,1.613l2.08.164c.852.057,1.277.319,1.277.8,0,.532-.377.8-1.122.8-.188,0-.819-.066-1.883-.2a21.87,21.87,0,0,0-2.244-.082l-2.882-.041h-1.761a34.373,34.373,0,0,0-4.446.2c-.7.106-1.179.172-1.441.2-.721.025-1.081-.237-1.081-.778,0-.442.409-.745,1.236-.9a3,3,0,0,0,2.219-1.482,13.2,13.2,0,0,0,.5-4.6V40.34c0-3.063-1.466-4.6-4.4-4.6l-1.359.041c-.614,0-.917-.27-.917-.819a.8.8,0,0,1,.6-.737,8.361,8.361,0,0,1,.876-.123q3.759-.356,8.876-3.521a2.46,2.46,0,0,1,.917-.319c.614-.025.917.426.917,1.359l-.041.762v5.961Z" transform="translate(-81.228 -15.222)" fill="#bba579"/>
    <path id="パス_5" data-name="パス 5" d="M416.5,47.2V42.27q0-4.569-1.72-6.322a8.311,8.311,0,0,0-6.24-2.383q-5.282,0-5.282,4.438a10.56,10.56,0,0,0,.516,3.013,4.964,4.964,0,0,1,.278,1.269c.025.475-.237.712-.794.712a7.249,7.249,0,0,1-3.4-.8c-1.024-.532-1.531-1.122-1.531-1.761q0-2.469,2.678-5.331a12.456,12.456,0,0,1,9.556-3.865q5.441,0,8.434,2.416a8.251,8.251,0,0,1,3,6.8V56.117a11.366,11.366,0,0,0,.9,5.29,3.2,3.2,0,0,0,3.022,1.58,5.827,5.827,0,0,0,.958-.066,5.357,5.357,0,0,1,.958-.172c.45-.025.663.164.639.557-.025.483-.655.966-1.883,1.458a9.681,9.681,0,0,1-3.611.737q-3.292,0-5.937-4.078-5.785,4.4-10.735,4.4a8.518,8.518,0,0,1-5.969-2.023,6.961,6.961,0,0,1-2.211-5.421,7.95,7.95,0,0,1,4.193-7.14q4.188-2.543,14.166-4.062Zm0,1.6q-6.2.553-9.581,2.8a6.693,6.693,0,0,0-3.374,5.748,5.562,5.562,0,0,0,5.961,5.969,7.741,7.741,0,0,0,5.6-2.186,6.044,6.044,0,0,0,1.392-4.414V48.8Z" transform="translate(-90.039 -15.4)" fill="#bba579"/>
    <path id="パス_6" data-name="パス 6" d="M462.788,37.423q5.355-6.363,11.112-6.354a11.742,11.742,0,0,1,10.113,5.241q2.555,3.6,2.555,10.973v9.564l-.041,1.2.123,1.924a3.57,3.57,0,0,0,3.357,3.087l1.679.237c.721.106,1.089.368,1.122.778.025.573-.409.86-1.318.86-.295,0-.811-.049-1.556-.139a42.1,42.1,0,0,0-4.864-.18l-3.947.123h-1.515l-1.155.082L477.9,64.7a.641.641,0,0,1-.278-.614c0-.409.237-.671.721-.778l1.2-.319q1.6-.405,1.6-2.874V46.341q0-5.552-2.563-8.565a9.067,9.067,0,0,0-7.3-3.013,9.558,9.558,0,0,0-5.912,1.957,5.615,5.615,0,0,0-2.588,4.479V56.462l.041,1.2.041,2.006q.2,3.366,5.56,3.685c.876.082,1.318.368,1.318.86s-.3.737-.917.737a13.19,13.19,0,0,1-2.039-.229c-.508-.057-1.76-.09-3.759-.09q-6.363,0-7.6.18c-.827.09-1.359.139-1.6.139-.508,0-.745-.221-.721-.655.025-.328.278-.59.762-.778A5.291,5.291,0,0,0,456.6,61.76a6.183,6.183,0,0,0,.7-3.357V40.355a7.6,7.6,0,0,0-.68-3.857,2.855,2.855,0,0,0-2.555-1.015l-1.72.041a1.278,1.278,0,0,1-.639-.164.584.584,0,0,1-.36-.573c0-.385.344-.647,1.04-.778a20.913,20.913,0,0,0,5.159-1.638l2.121-1.04c.827-.4,1.343-.655,1.556-.762a2.048,2.048,0,0,1,.958-.319c.483,0,.7.385.639,1.163-.025.426-.041.934-.041,1.523v4.52Z" transform="translate(-99.679 -15.22)" fill="#bba579"/>
    <path id="パス_7" data-name="パス 7" d="M536.453,31.25a19.973,19.973,0,0,1,6.141.868c1.8.581,2.7,1.236,2.7,1.973l-.041,1.2.279,3.038c0,1.417-.328,2.145-.974,2.2-.295.025-.68-.368-1.138-1.187a10.654,10.654,0,0,0-4.291-3.971,11.95,11.95,0,0,0-5.847-1.679,7.505,7.505,0,0,0-6.387,3.57,15.862,15.862,0,0,0-2.473,9.2,17.15,17.15,0,0,0,3.808,11.284,11.678,11.678,0,0,0,9.319,4.61,13.361,13.361,0,0,0,8.7-3.636,1.891,1.891,0,0,1,.983-.483c.409-.049.614.131.614.557,0,.581-.639,1.449-1.916,2.588a17.208,17.208,0,0,1-11.914,4.455,13.954,13.954,0,0,1-10.694-4.651,16.342,16.342,0,0,1-4.3-11.521,18.244,18.244,0,0,1,5.1-13.036,16.388,16.388,0,0,1,12.332-5.372Z" transform="translate(-111.939 -15.402)" fill="#bba579"/>
    <path id="パス_8" data-name="パス 8" d="M576.405,44.925l-.041.876a17.638,17.638,0,0,0,3.783,11.5,11.575,11.575,0,0,0,9.31,4.659q4.361,0,9.491-3.922a1.3,1.3,0,0,1,.6-.278q.565-.037.565.639,0,1.191-2.8,3.382a17.614,17.614,0,0,1-11,4.062,14.058,14.058,0,0,1-10.932-4.954,17.728,17.728,0,0,1-4.422-12.258,17.475,17.475,0,0,1,4.561-12.16q4.557-5.208,10.678-5.216a12.512,12.512,0,0,1,10.678,5.56,20.593,20.593,0,0,1,1.957,3.677,10.148,10.148,0,0,1,1,3.243c0,.876-.868,1.318-2.6,1.318l-2.964-.041-2.727-.082H576.4Zm.237-2.2H590.2c2.1,0,3.161-.426,3.161-1.277a8.066,8.066,0,0,0-2.7-5.8A8.2,8.2,0,0,0,584.8,32.97a6.948,6.948,0,0,0-5.462,2.62,13.367,13.367,0,0,0-2.7,7.14Z" transform="translate(-121.347 -15.402)" fill="#bba579"/>
    <path id="パス_9" data-name="パス 9" d="M671.815,32.087q5.147-6.363,11.218-6.354a11.7,11.7,0,0,1,9.122,3.881,14.613,14.613,0,0,1,3.5,10.154V52.444c0,2.023.336,3.415,1,4.16s2.08,1.294,4.242,1.638c.721.106,1.081.4,1.081.876s-.36.721-1.081.721c-.319,0-.974-.041-1.957-.123q-2.96-.2-5.077-.2a46.34,46.34,0,0,0-5.2.213c-.639.074-1.056.106-1.236.106-.721,0-1.089-.246-1.122-.737-.025-.328.237-.606.8-.819a6.247,6.247,0,0,0,2.522-1.376,4.191,4.191,0,0,0,.483-2.407l.041-1.236V40.005a11.778,11.778,0,0,0-2.6-8.025,8.747,8.747,0,0,0-6.944-2.964,9.666,9.666,0,0,0-6.068,2.1,5.944,5.944,0,0,0-2.711,4.7v15.5q0,4.09.917,5.29t4.479,1.679c.909.131,1.359.459,1.359.974q0,.663-.884.663c-.295,0-1.032-.057-2.2-.18-.958-.1-2.989-.139-6.092-.139-1.073,0-2.6.074-4.61.213-.884.074-1.5.106-1.842.106-.639,0-.974-.2-1-.622-.025-.467.278-.794.917-.974,1.572-.475,2.538-1.024,2.9-1.638s.54-2.064.54-4.356V10.7q0-4.913-2.678-4.758l-2.039.123a1.189,1.189,0,0,1-.557-.123.562.562,0,0,1-.278-.532c0-.385.311-.655.925-.819A28.277,28.277,0,0,0,667.3,2.51l3.128-1.482a1.867,1.867,0,0,1,.844-.237c.45,0,.68.295.68.876a9.465,9.465,0,0,1-.082.958c-.025.45-.041,1.13-.041,2.039V32.1Z" transform="translate(-137.613 -9.884)" fill="#bba579"/>
    <path id="パス_10" data-name="パス 10" d="M746.845,47.2V42.27q0-4.569-1.72-6.322a8.311,8.311,0,0,0-6.24-2.383q-5.282,0-5.282,4.438a10.561,10.561,0,0,0,.516,3.013,4.965,4.965,0,0,1,.278,1.269c.025.475-.237.712-.794.712a7.249,7.249,0,0,1-3.4-.8c-1.023-.532-1.531-1.122-1.531-1.761q0-2.469,2.678-5.331a12.457,12.457,0,0,1,9.556-3.865q5.441,0,8.434,2.416a8.251,8.251,0,0,1,3,6.8V56.117a11.366,11.366,0,0,0,.9,5.29,3.2,3.2,0,0,0,3.022,1.58,5.825,5.825,0,0,0,.958-.066,5.358,5.358,0,0,1,.958-.172c.45-.025.663.164.639.557-.025.483-.655.966-1.883,1.458a9.682,9.682,0,0,1-3.611.737q-3.292,0-5.937-4.078-5.785,4.4-10.735,4.4a8.518,8.518,0,0,1-5.969-2.023,6.961,6.961,0,0,1-2.211-5.421,7.95,7.95,0,0,1,4.193-7.14q4.188-2.543,14.166-4.062Zm0,1.6q-6.2.553-9.581,2.8a6.693,6.693,0,0,0-3.374,5.748,5.562,5.562,0,0,0,5.961,5.969,7.741,7.741,0,0,0,5.6-2.186,6.044,6.044,0,0,0,1.392-4.414V48.8Z" transform="translate(-149.879 -15.4)" fill="#bba579"/>
    <path id="パス_11" data-name="パス 11" d="M792.267,3.007V49.936a13.183,13.183,0,0,0,.761,5.044c.59,1.335,2.236,2.227,4.954,2.678.745.131,1.13.4,1.163.819.025.6-.254.9-.843.9a5.011,5.011,0,0,1-1.04-.164,9.724,9.724,0,0,0-1.8-.123l-3.488.041h-2.08q-3.808,0-4.692.123c-.852.131-1.367.2-1.523.2q-1.044,0-1.081-.786c-.025-.442.344-.77,1.122-.974a4.391,4.391,0,0,0,2.416-1.376,4.861,4.861,0,0,0,.622-2.776V9.2q0-3.673-2.555-3.677l-2,.082a2.339,2.339,0,0,1-.68-.082.688.688,0,0,1-.483-.655c0-.385.344-.671,1.04-.86a18.244,18.244,0,0,0,2.489-.762l2.448-1a18.946,18.946,0,0,0,3.89-1.916,1.563,1.563,0,0,1,.8-.319c.4-.025.6.557.6,1.761l-.041,1.236Z" transform="translate(-159.401 -9.743)" fill="#bba579"/>
    <path id="パス_12" data-name="パス 12" d="M829.657,3.007V49.936a13.182,13.182,0,0,0,.761,5.044c.59,1.335,2.236,2.227,4.954,2.678.745.131,1.13.4,1.163.819.025.6-.254.9-.843.9a5.01,5.01,0,0,1-1.04-.164,9.725,9.725,0,0,0-1.8-.123l-3.488.041h-2.08q-3.808,0-4.692.123c-.852.131-1.367.2-1.523.2q-1.044,0-1.081-.786c-.025-.442.344-.77,1.122-.974a4.391,4.391,0,0,0,2.416-1.376,4.861,4.861,0,0,0,.622-2.776V9.2q0-3.673-2.555-3.677l-2,.082a2.34,2.34,0,0,1-.68-.082.689.689,0,0,1-.483-.655c0-.385.344-.671,1.04-.86a18.247,18.247,0,0,0,2.489-.762l2.448-1A18.946,18.946,0,0,0,828.3.329a1.563,1.563,0,0,1,.8-.319c.4-.025.6.557.6,1.761l-.041,1.236Z" transform="translate(-166.174 -9.743)" fill="#bba579"/>
    <line id="線_2" data-name="線 2" x2="570.327" transform="translate(114.069 62.016)" fill="none" stroke="#bba579" stroke-miterlimit="10" stroke-width="5"/>
  </g>
</svg>
