<?xml version="1.0" encoding="UTF-8"?><svg id="_レイヤー_2" xmlns="http://www.w3.org/2000/svg" viewBox="0 0 1256.48 105.62"><defs><style>.cls-1{fill:#fff;}</style></defs><g id="_レイヤー"><path class="cls-1" d="M24.61,15.18v29.55c0,2.25.21,3.62.62,4.08.41.47,1.67.7,3.77.7h11.28c5.13,0,9.18-.29,12.16-.88,2.64-.54,4.35-1.25,5.13-2.12.78-.88,1.49-2.93,2.12-6.15.25-1.22.87-1.81,1.87-1.76.95.05,1.42.71,1.42,1.97,0,.34-.03.88-.08,1.61-.44,4.73-.65,9.04-.65,12.93,0,2.97.15,5.92.44,8.84.1.97.15,1.68.15,2.12,0,1.22-.48,1.83-1.42,1.83-1.05,0-1.67-.54-1.87-1.61l-.44-2.05c-.59-3.27-1.76-5.49-3.51-6.67-1.75-1.17-4.73-1.76-8.92-1.76h-16.15c-2.39,0-3.98.25-4.79.73-.8.49-1.21,1.47-1.21,2.94l.07,2.42v27c0,4.16.74,6.75,2.23,7.78,1.49,1.03,5.25,1.54,11.3,1.54,19.16,0,31.47-4.32,36.93-12.96.55-.83,1.1-1.27,1.65-1.32.9-.05,1.35.58,1.35,1.9,0,3.16-1.78,6.94-5.35,11.31-4.3,5.26-9.72,7.88-16.26,7.88-1.42,0-3.32-.1-5.71-.29-9.33-.88-17.04-1.32-23.14-1.32-8.55,0-14.58.29-18.09.88-1.86.34-3.13.51-3.81.51-1.56,0-2.34-.53-2.34-1.58,0-.81.63-1.39,1.9-1.72l2.78-.81c3.52-.98,5.27-4.4,5.27-10.27l.07-4.77V23.68c0-6.99-.77-11.7-2.31-14.12-1.54-2.42-4.53-3.63-8.97-3.63-1.42,0-2.12-.45-2.12-1.36,0-1.34,1.1-2.01,3.3-2.01,1.22,0,2.86.12,4.91.37,6.98.78,15.38,1.17,25.2,1.17,5.96,0,11.23-.1,15.82-.29l10.4-.51c2.88-.1,4.64-.19,5.27-.29,1.32-.19,2.29-.29,2.93-.29,1.61,0,2.42.71,2.42,2.12,0,.44-.07,1-.22,1.68-.15.68-.34,2.63-.59,5.84l-.29,4.31c-.25,2.82-.5,4.59-.75,5.29-.25.7-.8,1.08-1.64,1.13-.95.05-1.42-.68-1.42-2.2v-1.9c0-1.56-.29-3.05-.88-4.47-.93-2.2-2.8-3.66-5.63-4.39s-8.02-1.1-15.57-1.1h-11.48c-3.02,0-4.97.38-5.85,1.14-.88.76-1.32,2.44-1.32,5.04Z"/><path class="cls-1" d="M244.6,31.79v61.38c0,5.52-.12,8.88-.37,10.07-.25,1.2-.93,1.77-2.05,1.72-.73-.05-1.29-.27-1.68-.66l-1.61-1.9-61.74-70.61-.73-.81c-.29-.29-.64-.44-1.03-.44-.93,0-1.39,1.1-1.39,3.3v49.71l-.07,3.08.22,5.21c.34,3.23,1.17,5.45,2.49,6.67,1.32,1.22,3.91,2.13,7.76,2.71,1.61.19,2.42.81,2.42,1.86,0,.95-.51,1.43-1.54,1.43-.68,0-1.42-.05-2.2-.15-.54-.1-2.66-.24-6.37-.44l-7.47-.37-3.52.13c-1.9,0-3.71.11-5.42.33-1.27.18-2.17.27-2.71.27-1.27,0-1.95-.45-2.05-1.36-.05-.72.63-1.31,2.05-1.79,4.1-1.42,6.87-3.31,8.31-5.68,1.44-2.37,2.16-6.19,2.16-11.47v-49.84c0-8.45-1.34-15.11-4.03-19.97-2.69-4.86-6.57-7.64-11.65-8.32-1.32-.19-1.98-.74-1.98-1.64s.54-1.36,1.61-1.36c.24,0,.63.03,1.17.07l3,.07,4.91.15,1.17-.07c1.17-.05,2.07-.07,2.71-.07,1.22,0,2.44.71,3.66,2.12l67.38,76.32c1.07,1.22,1.76,1.81,2.05,1.76.49-.05.76-.51.81-1.39v-36.25l.07-9.89-.88-16.85c-.49-4.15-1.7-7.09-3.63-8.83-1.93-1.73-5.41-3.01-10.44-3.85-1.42-.24-2.12-.84-2.12-1.79s.71-1.36,2.12-1.36c.63,0,1.66.07,3.08.2,3.37.35,7.88.53,13.55.53,3.03,0,5.44-.15,7.25-.44,1.56-.29,2.76-.44,3.59-.44,1.27,0,1.95.51,2.05,1.54.05.64-.44,1.1-1.46,1.39-2.98.73-4.94,1.95-5.9,3.66-.95,1.71-1.43,4.91-1.43,9.59v7.91l-.15,4.83Z"/><path class="cls-1" d="M404.9,11.35h-20.58c-2.15,0-3.5.29-4.06.88-.56.59-.84,2.03-.84,4.33v71.89l.07,2.86c.24,5.72,3.44,9.12,9.59,10.2,1.71.29,2.56.84,2.56,1.65,0,1.05-.69,1.58-2.06,1.58-.59,0-1.79-.15-3.6-.44-.93-.15-3.13-.22-6.61-.22l-5.36-.07-5.72.07c-2.06,0-3.79.07-5.21.22-2.79.29-4.43.44-4.92.44-1.47,0-2.2-.52-2.2-1.57,0-.76.81-1.24,2.42-1.43,3.76-.49,6.3-1.53,7.62-3.12,1.32-1.59,1.98-4.44,1.98-8.55V17.37l-.07-1.91c0-1.76-.26-2.88-.77-3.37-.51-.49-1.7-.73-3.55-.73h-19.41c-3.96,0-6.82.79-8.61,2.38-1.78,1.59-3.16,4.58-4.14,8.97-.44,1.9-1.1,2.83-1.98,2.78-.88-.05-1.32-.71-1.32-1.97,0-1.02.29-2.9.88-5.62.73-3.5,1.1-6.4,1.1-8.69s.26-3.71.77-4.42c.51-.71,1.6-1.06,3.26-1.06h78.87c2.69,0,4.31.29,4.87.88.56.58.84,2.31.84,5.18s.12,4.96.37,6.27c.24,1.65.39,2.85.44,3.57.05,1.46-.46,2.24-1.54,2.33-.88.05-1.46-.71-1.76-2.27-.64-3.47-1.66-5.72-3.08-6.77-1.42-1.05-4.17-1.57-8.28-1.57Z"/><path class="cls-1" d="M543.74,53.52l20.21,29.8,2.34,3.51c6.25,9.16,12.01,13.9,17.29,14.24l2.34.15c.88.05,1.29.4,1.25,1.04-.05.75-1.14,1.42-3.26,2.01-2.12.6-4.53.9-7.21.9-4.39,0-8.34-1.21-11.83-3.63-3.49-2.42-7.04-6.36-10.66-11.83l-18.24-27.83-1.03-1.61c-1.17-2-3.08-3-5.71-3h-9.74l-1.61.29c-.59.34-.88,1.13-.88,2.35v22.93l.07,2.94c0,4.21.21,7.09.62,8.63.41,1.54,1.4,2.93,2.97,4.15,2.1,1.67,5.35,2.72,9.74,3.16,1.76.19,2.66.74,2.71,1.65.1.95-.71,1.43-2.42,1.43-.68,0-2.12-.11-4.32-.32-2-.22-5.1-.33-9.3-.33l-7.03-.08-3.81.07c-1.66,0-3.66.12-6.01.37-1.9.19-3.22.29-3.96.29-1.22,0-1.83-.5-1.83-1.5,0-.71.61-1.19,1.83-1.43,3.91-.73,6.47-2.5,7.69-5.32,1.22-2.81,1.83-8.35,1.83-16.61V27.28l-.15-7.63c0-7.63-2.66-11.88-7.98-12.76l-3.44-.51c-1.56-.29-2.34-.86-2.34-1.72,0-1,.83-1.5,2.49-1.5.39,0,2.1.1,5.13.29,1.76.15,3.93.22,6.52.22,2.25,0,6.08-.17,11.5-.51,3.91-.24,7.35-.37,10.33-.37,11.23,0,19.7,2.11,25.42,6.34s8.57,10.52,8.57,18.88c0,11-6.03,19.5-18.09,25.51ZM522.21,51.93h8.29c6.41,0,11.45-1.76,15.12-5.29,3.67-3.53,5.51-8.35,5.51-14.48,0-7.1-2.5-12.95-7.49-17.53-4.99-4.58-11.35-6.87-19.08-6.87-2.89,0-4.88.48-5.98,1.43-1.1.96-1.65,2.68-1.65,5.18l.07,2.42v29.84c0,2.3.31,3.76.92,4.37.61.61,2.04.92,4.29.92Z"/><path class="cls-1" d="M712.82,65.48h-26.51c-3.61,0-5.86.29-6.74.88s-2.05,2.54-3.52,5.87l-4.8,10.79c-2.17,4.94-3.25,8.61-3.25,11.01s.57,3.96,1.72,4.99c1.15,1.03,3.41,1.91,6.77,2.64,1.46.29,2.22.86,2.27,1.72.05.81-.63,1.21-2.04,1.21-.54,0-1.37-.03-2.48-.08l-7.01-.41c-2.34-.11-5.04-.17-8.11-.17-1.41,0-2.51.03-3.29.1-2.48.27-3.85.41-4.09.41-1.31,0-1.97-.45-1.97-1.35,0-.8.42-1.33,1.25-1.58l2.71-.81c.98-.29,2.29-1.48,3.96-3.55,1.66-2.08,3.03-4.24,4.1-6.49l2.12-4.84L701.54,2.2c.63-1.46,1.34-2.2,2.12-2.2s1.44.71,1.98,2.13l31.49,80.68,1.61,3.96c2.29,5.92,4.2,9.6,5.71,11.04,1.51,1.44,4.59,2.58,9.23,3.41,1.51.29,2.25.88,2.2,1.79-.05.81-.73,1.22-2.05,1.22-.44,0-1.37-.05-2.78-.15-2.54-.24-7.06-.37-13.55-.37s-11.04.15-12.74.44c-1.03.19-1.78.29-2.27.29-1.27,0-1.9-.5-1.9-1.5,0-.76.61-1.26,1.83-1.5l2.27-.51c2.44-.49,3.66-2.15,3.66-4.99,0-2.59-1.49-7.75-4.47-15.48l-3.66-9.69c-1.03-2.69-1.83-4.24-2.42-4.66-.59-.42-2.25-.62-4.98-.62ZM713.7,53.69l-11.5-29-.59-1.54c-.59-1.56-1.22-2.37-1.9-2.42-.34-.05-.73.42-1.17,1.39l-14.28,31.71c-.64,1.37-.95,2.27-.95,2.71,0,1.27,1.12,1.9,3.37,1.9l1.98.07h22.12c2.44,0,3.66-.61,3.66-1.83,0-.34-.12-.9-.37-1.68l-.37-1.32Z"/><path class="cls-1" d="M915.31,31.79v61.38c0,5.52-.12,8.88-.37,10.07-.25,1.2-.93,1.77-2.05,1.72-.73-.05-1.29-.27-1.68-.66l-1.61-1.9-61.74-70.61-.73-.81c-.29-.29-.64-.44-1.03-.44-.93,0-1.39,1.1-1.39,3.3v49.71l-.07,3.08.22,5.21c.34,3.23,1.17,5.45,2.49,6.67,1.32,1.22,3.91,2.13,7.76,2.71,1.61.19,2.42.81,2.42,1.86,0,.95-.51,1.43-1.54,1.43-.68,0-1.42-.05-2.2-.15-.54-.1-2.66-.24-6.37-.44l-7.47-.37-3.52.13c-1.9,0-3.71.11-5.42.33-1.27.18-2.17.27-2.71.27-1.27,0-1.95-.45-2.05-1.36-.05-.72.63-1.31,2.05-1.79,4.1-1.42,6.87-3.31,8.31-5.68,1.44-2.37,2.16-6.19,2.16-11.47v-49.84c0-8.45-1.34-15.11-4.03-19.97-2.69-4.86-6.57-7.64-11.65-8.32-1.32-.19-1.98-.74-1.98-1.64s.54-1.36,1.61-1.36c.24,0,.63.03,1.17.07l3,.07,4.91.15,1.17-.07c1.17-.05,2.07-.07,2.71-.07,1.22,0,2.44.71,3.66,2.12l67.38,76.32c1.07,1.22,1.76,1.81,2.05,1.76.49-.05.76-.51.81-1.39v-36.25l.07-9.89-.88-16.85c-.49-4.15-1.7-7.09-3.63-8.83-1.93-1.73-5.41-3.01-10.44-3.85-1.42-.24-2.12-.84-2.12-1.79s.71-1.36,2.12-1.36c.63,0,1.66.07,3.08.2,3.37.35,7.88.53,13.55.53,3.03,0,5.44-.15,7.25-.44,1.56-.29,2.76-.44,3.59-.44,1.27,0,1.95.51,2.05,1.54.05.64-.44,1.1-1.46,1.39-2.98.73-4.94,1.95-5.9,3.66-.95,1.71-1.43,4.91-1.43,9.59v7.91l-.15,4.83Z"/><path class="cls-1" d="M1095.97,12.23l2.34,17.58.22,1.83-.22.73c-.25.44-.61.68-1.1.73-.59.05-1.46-.97-2.64-3.07-9.14-15.97-21.53-23.96-37.17-23.96-12.46,0-22.29,3.83-29.47,11.48s-10.78,18.11-10.78,31.37c0,15.26,4,27.73,11.99,37.41s18.27,14.52,30.83,14.52c7.33,0,14.54-1.96,21.63-5.88,7.09-3.92,12-8.67,14.74-14.25,1.27-2.6,2.25-3.92,2.93-3.97.78-.05,1.17.42,1.17,1.4l-.07.81-.29,1.62-1.68,8.98-.29,1.33c-.2,1.27-1.34,2.59-3.44,3.96-11.28,7.18-23.71,10.77-37.28,10.77-15.72,0-28.39-4.66-38.01-13.98-9.62-9.32-14.43-21.59-14.43-36.82s4.98-27.87,14.94-37.95c9.96-10.08,22.46-15.11,37.5-15.11,10.3,0,19.77,2.32,28.42,6.96l2.93,1.54,1.17.51,1.25.44c.24,0,.61-.19,1.1-.59,1.08-.78,1.81-1.17,2.2-1.17.78,0,1.3.93,1.54,2.78Z"/><path class="cls-1" d="M1203.02,15.18v29.55c0,2.25.21,3.62.62,4.08.41.47,1.67.7,3.77.7h11.28c5.13,0,9.18-.29,12.16-.88,2.64-.54,4.35-1.25,5.13-2.12.78-.88,1.49-2.93,2.12-6.15.25-1.22.87-1.81,1.87-1.76.95.05,1.42.71,1.42,1.97,0,.34-.03.88-.08,1.61-.44,4.73-.65,9.04-.65,12.93,0,2.97.15,5.92.44,8.84.1.97.15,1.68.15,2.12,0,1.22-.48,1.83-1.42,1.83-1.05,0-1.67-.54-1.87-1.61l-.44-2.05c-.59-3.27-1.76-5.49-3.51-6.67-1.75-1.17-4.73-1.76-8.92-1.76h-16.15c-2.39,0-3.98.25-4.79.73-.8.49-1.21,1.47-1.21,2.94l.07,2.42v27c0,4.16.74,6.75,2.23,7.78,1.49,1.03,5.25,1.54,11.3,1.54,19.16,0,31.47-4.32,36.93-12.96.55-.83,1.1-1.27,1.65-1.32.9-.05,1.35.58,1.35,1.9,0,3.16-1.78,6.94-5.35,11.31-4.3,5.26-9.72,7.88-16.26,7.88-1.42,0-3.32-.1-5.71-.29-9.33-.88-17.04-1.32-23.14-1.32-8.55,0-14.58.29-18.09.88-1.86.34-3.13.51-3.81.51-1.56,0-2.34-.53-2.34-1.58,0-.81.63-1.39,1.9-1.72l2.78-.81c3.52-.98,5.27-4.4,5.27-10.27l.07-4.77V23.68c0-6.99-.77-11.7-2.31-14.12-1.54-2.42-4.53-3.63-8.97-3.63-1.42,0-2.12-.45-2.12-1.36,0-1.34,1.1-2.01,3.3-2.01,1.22,0,2.86.12,4.91.37,6.98.78,15.38,1.17,25.2,1.17,5.96,0,11.23-.1,15.82-.29l10.4-.51c2.88-.1,4.64-.19,5.27-.29,1.32-.19,2.29-.29,2.93-.29,1.61,0,2.42.71,2.42,2.12,0,.44-.07,1-.22,1.68-.15.68-.34,2.63-.59,5.84l-.29,4.31c-.25,2.82-.5,4.59-.75,5.29-.25.7-.8,1.08-1.64,1.13-.95.05-1.42-.68-1.42-2.2v-1.9c0-1.56-.29-3.05-.88-4.47-.93-2.2-2.8-3.66-5.63-4.39s-8.02-1.1-15.57-1.1h-11.48c-3.02,0-4.97.38-5.85,1.14-.88.76-1.32,2.44-1.32,5.04Z"/></g></svg>