<svg id="_レイヤー_1" data-name="レイヤー 1" xmlns="http://www.w3.org/2000/svg" viewBox="0 0 400 330"><defs><style>.cls-1{fill:#557ec0}.cls-2{fill:#eda13c}</style></defs><path class="cls-2" d="M200.61 327.5c-.95 0-1.9-.16-2.81-.48L93.3 290.59a8.546 8.546 0 010-16.14l13.15-4.58v-229c0-2.76 1.33-5.35 3.58-6.95a8.44 8.44 0 012.73-1.29l85.03-29.65c1.82-.64 3.8-.64 5.63 0l85.25 29.72a8.53 8.53 0 016.1 8.17v229l13.15 4.58a8.546 8.546 0 010 16.14l-104.5 36.43c-.91.32-1.86.48-2.81.48zm-79.71-45.38l79.71 27.79 79.71-27.79a8.545 8.545 0 01-2.64-6.18V46.96l-77.07-26.87-77.07 26.87v228.98c0 2.38-.99 4.6-2.64 6.17z"/><path class="cls-1" d="M197.79 327.02l-104.5-36.43a8.546 8.546 0 010-16.14l13.15-4.58v-229c0-2.76 1.33-5.35 3.58-6.95a8.44 8.44 0 012.73-1.29l85.04-29.65 5.63 16.14-79.88 27.85v228.98c0 2.38-.99 4.6-2.64 6.17l82.52 28.77-5.63 16.14z"/><path class="cls-1" d="M56.46 199.15l-6.44-9.93 45.86-29.75-51.78-33.14 6.38-9.97 59.51 38.09a5.924 5.924 0 012.73 4.96 5.92 5.92 0 01-2.7 4.98l-53.56 34.74z"/><path class="cls-1" d="M46.19 170.63l-21.44 42.04 47.13-2.45-25.69-39.59z"/><g><path class="cls-2" d="M343.54 199.15l-53.56-34.74a5.92 5.92 0 01-2.7-4.98c0-2.01 1.03-3.88 2.73-4.96l59.51-38.09 6.38 9.97-51.78 33.14 45.86 29.75-6.44 9.93z"/><path class="cls-2" d="M328.12 210.23l47.13 2.44-21.44-42.04-25.69 39.6z"/></g></svg>